<?xml version="1.0" encoding="UTF-8"?>
<svg width="24px" height="24px" viewBox="0 0 24 24" version="1.1" xmlns="http://www.w3.org/2000/svg" xmlns:xlink="http://www.w3.org/1999/xlink">
    <!-- Generator: Sketch 60 (88103) - https://sketch.com -->
    <title>Arrow_Left</title>
    <desc>Created with Sketch.</desc>
    <g id="Page-1" stroke="none" stroke-width="1" fill="none" fill-rule="evenodd">
        <g id="iPhone-SE" transform="translate(-121.000000, -138.000000)">
            <g id="Arrow_Left" transform="translate(121.000000, 138.000000)">
                <circle id="Oval" fill="#152E38" cx="12" cy="12" r="12"></circle>
                <path d="M19,12.3421234 C19,12.7490458 18.6700779,13.0789679 18.2631555,13.0789679 L7.51240958,13.0789679 L10.8514206,16.4270052 C11.1387899,16.7152957 11.1382373,17.1817183 10.8501311,17.4690876 C10.7062622,17.6125881 10.5179984,17.6842462 10.3297346,17.6842462 C10.1409182,17.6842462 9.9519176,17.6120355 9.80804871,17.4677981 L5.21511255,12.8625198 C4.92829582,12.574782 4.92829582,12.1094647 5.21511255,11.8217269 L9.80804871,7.21644863 C10.0954181,6.92834242 10.5618407,6.92778979 10.8501311,7.21515916 C11.1382373,7.50252852 11.1387899,7.96895111 10.8514206,8.25724153 L7.51240958,11.6052789 L18.2631555,11.6052789 C18.6700779,11.6052789 19,11.935201 19,12.3421234" id="arrow-thin-left" fill="#FFFFFF"></path>
            </g>
        </g>
    </g>
</svg>