<?xml version="1.0" encoding="utf-8"?>
<!-- Generator: Adobe Illustrator 24.1.0, SVG Export Plug-In . SVG Version: 6.00 Build 0)  -->
<svg version="1.1" id="圖層_1" xmlns="http://www.w3.org/2000/svg" xmlns:xlink="http://www.w3.org/1999/xlink" x="0px" y="0px"
	 viewBox="0 0 316.2 26" style="enable-background:new 0 0 316.2 26;" xml:space="preserve">
<style type="text/css">
	.st0{filter:url(#Adobe_OpacityMaskFilter);}
	.st1{fill-rule:evenodd;clip-rule:evenodd;fill:#FFFFFF;}
	.st2{mask:url(#mask-2_16_);fill-rule:evenodd;clip-rule:evenodd;fill:#E50113;}
	.st3{filter:url(#Adobe_OpacityMaskFilter_1_);}
	.st4{mask:url(#mask-2_17_);fill-rule:evenodd;clip-rule:evenodd;fill:#E50113;}
	.st5{filter:url(#Adobe_OpacityMaskFilter_2_);}
	.st6{mask:url(#mask-2_18_);fill-rule:evenodd;clip-rule:evenodd;fill:#E50113;}
	.st7{clip-path:url(#SVGID_2_);fill:url(#SVGID_3_);}
	.st8{clip-path:url(#SVGID_2_);}
	.st9{clip-path:url(#SVGID_6_);fill:url(#SVGID_7_);}
	.st10{clip-path:url(#SVGID_2_);fill:url(#SVGID_8_);}
	.st11{clip-path:url(#SVGID_2_);fill:url(#SVGID_9_);}
	.st12{clip-path:url(#SVGID_2_);fill:url(#SVGID_10_);}
	.st13{clip-path:url(#SVGID_2_);fill:url(#SVGID_11_);}
	.st14{opacity:0.6;clip-path:url(#SVGID_2_);fill:url(#SVGID_12_);}
	.st15{clip-path:url(#SVGID_2_);fill:url(#SVGID_13_);}
	.st16{clip-path:url(#SVGID_2_);fill:#FFFFFF;}
	.st17{fill:#231815;}
	.st18{fill:#E50012;}
	.st19{fill:#E60012;}
</style>
<desc>Created with Sketch.</desc>
<g id="Clip-13">
</g>
<defs>
	<filter id="Adobe_OpacityMaskFilter" filterUnits="userSpaceOnUse" x="56.9" y="17.6" width="2.4" height="2.8">
		<feColorMatrix  type="matrix" values="1 0 0 0 0  0 1 0 0 0  0 0 1 0 0  0 0 0 1 0"/>
	</filter>
</defs>
<mask maskUnits="userSpaceOnUse" x="56.9" y="17.6" width="2.4" height="2.8" id="mask-2_16_">
	<g class="st0">
		<polygon id="path-1_16_" class="st1" points="44.2,20.9 315.4,20.9 315.4,5.1 44.2,5.1 		"/>
	</g>
</mask>
<polygon id="Fill-28" class="st2" points="58.9,17.6 58.7,18.6 57.7,18.6 57.9,17.6 57.5,17.6 56.9,20.4 57.4,20.4 57.6,19.1 
	58.6,19.1 58.3,20.4 58.8,20.4 59.3,17.6 "/>
<defs>
	<filter id="Adobe_OpacityMaskFilter_1_" filterUnits="userSpaceOnUse" x="59.7" y="17.6" width="0.6" height="0.5">
		<feColorMatrix  type="matrix" values="1 0 0 0 0  0 1 0 0 0  0 0 1 0 0  0 0 0 1 0"/>
	</filter>
</defs>
<mask maskUnits="userSpaceOnUse" x="59.7" y="17.6" width="0.6" height="0.5" id="mask-2_17_">
	<g class="st3">
		<polygon id="path-1_17_" class="st1" points="44.2,20.9 315.4,20.9 315.4,5.1 44.2,5.1 		"/>
	</g>
</mask>
<polygon id="Fill-29" class="st4" points="59.7,18.1 60.2,18.1 60.3,17.6 59.8,17.6 "/>
<defs>
	<filter id="Adobe_OpacityMaskFilter_2_" filterUnits="userSpaceOnUse" x="59.3" y="18.3" width="0.9" height="2.1">
		<feColorMatrix  type="matrix" values="1 0 0 0 0  0 1 0 0 0  0 0 1 0 0  0 0 0 1 0"/>
	</filter>
</defs>
<mask maskUnits="userSpaceOnUse" x="59.3" y="18.3" width="0.9" height="2.1" id="mask-2_18_">
	<g class="st5">
		<polygon id="path-1_18_" class="st1" points="44.2,20.9 315.4,20.9 315.4,5.1 44.2,5.1 		"/>
	</g>
</mask>
<polygon id="Fill-30" class="st6" points="59.3,20.4 59.8,20.4 60.2,18.3 59.7,18.3 "/>
<g>
	<g>
		<defs>
			<path id="SVGID_1_" d="M25.4,8.1c0,4.5-5.1,8.1-11.4,8.1c-6.3,0-11.4-3.6-11.4-8.1C2.7,3.6,7.8,0,14,0C20.3,0,25.4,3.6,25.4,8.1z
				"/>
		</defs>
		<clipPath id="SVGID_2_">
			<use xlink:href="#SVGID_1_"  style="overflow:visible;"/>
		</clipPath>
		
			<radialGradient id="SVGID_3_" cx="35.0002" cy="1929.9164" r="12.1102" fx="40.3253" fy="1921.6959" gradientTransform="matrix(0.9938 0 0 0.7059 -20.3445 -1355.037)" gradientUnits="userSpaceOnUse">
			<stop  offset="0.5487" style="stop-color:#D61518"/>
			<stop  offset="0.6276" style="stop-color:#D01619"/>
			<stop  offset="0.7347" style="stop-color:#BF1A1D"/>
			<stop  offset="0.8574" style="stop-color:#A22123"/>
			<stop  offset="0.9059" style="stop-color:#952426"/>
		</radialGradient>
		<path class="st7" d="M25.4,8.1c0,4.5-5.1,8.1-11.4,8.1c-6.3,0-11.4-3.6-11.4-8.1C2.7,3.6,7.8,0,14,0C20.3,0,25.4,3.6,25.4,8.1z"/>
		<g class="st8">
			<defs>
				<path id="SVGID_4_" d="M20.6,14c-1.4,0.1-2.6-0.9-2.9-2.3c-0.1-0.4-0.1-0.8,0-1.2c0.1-1.4,0.4-2.8,0.6-4.2
					c0.1-0.6,0.2-1.1,0.1-1.7c0-0.3-0.1-0.6-0.3-0.8c-0.2-0.3-0.6-0.3-0.9-0.3c-0.4,0-0.9,0.2-1.3,0.4c-1.1,0.5-2.1,1.1-3.1,1.8
					c-0.9,0.6-1.7,1.3-2.4,2c0,0-0.1,0.1-0.1,0.1c0,0,0,0,0,0c0,0,0-0.1,0.1-0.1c1.4-1.5,3-3,4.7-4.2c1.2-0.8,2.5-1.5,3.9-2.1
					C19,1.2,19.5,1,19.6,1c-0.3-0.1-0.5-0.2-0.8-0.3c-0.1,0-0.2,0.1-0.3,0.1c-2.4,0.7-4.7,1.6-6.9,2.8c-2,1-3.8,2.2-5.5,3.6
					C5,8.1,4,9.1,3.2,10.2c0,0-0.1,0.2-0.1,0.2c0.6,1.4,1.6,2.5,3,3.5c0.2-0.3,0.3-0.6,0.5-0.9c0.7-1.1,1.5-2.2,2.3-3.3
					c0.6-0.8,1.4-1.5,2.1-2.1C12,6.8,12.9,6,14,5.4c0.4-0.2,0.8-0.4,1.1-0.5c0.6-0.2,0.4,0.3,0.4,0.4C15.4,5.7,15.2,6,15,6.4
					c-0.6,1.2-1.2,2.4-1.7,3.6c-0.3,0.6-0.5,1.3-0.6,2c-0.1,0.8,0,1.5,0.4,2.2c0.3,0.5,0.8,0.8,1.4,1c1,0.4,2.1,0.4,3.1,0.3
					c0.6-0.1,1.2-0.1,1.8-0.3c0.2-0.1,0.4-0.1,0.8-0.2c0.1-0.1,1.1-0.2,3.1-2.2c-0.1,0.1-0.2,0.1-0.3,0.2C22.4,13.6,21.6,14,20.6,14
					z"/>
			</defs>
			<radialGradient id="SVGID_5_" cx="13.5674" cy="7.3514" r="9.1933" fx="17.6099" fy="1.1109" gradientUnits="userSpaceOnUse">
				<stop  offset="0.5487" style="stop-color:#FFFFFF"/>
				<stop  offset="0.603" style="stop-color:#F9F9F9"/>
				<stop  offset="0.6767" style="stop-color:#E8E8E8"/>
				<stop  offset="0.7616" style="stop-color:#CBCBCB"/>
				<stop  offset="0.8547" style="stop-color:#A3A3A3"/>
				<stop  offset="0.95" style="stop-color:#737373"/>
				<stop  offset="1" style="stop-color:#8C8C8C"/>
			</radialGradient>
			<use xlink:href="#SVGID_4_"  style="overflow:visible;fill:url(#SVGID_5_);"/>
			<clipPath id="SVGID_6_">
				<use xlink:href="#SVGID_4_"  style="overflow:visible;"/>
			</clipPath>
			
				<radialGradient id="SVGID_7_" cx="35.0053" cy="1929.8984" r="12.1096" fx="40.3301" fy="1921.6783" gradientTransform="matrix(0.9938 0 0 0.7059 -20.3445 -1355.037)" gradientUnits="userSpaceOnUse">
				<stop  offset="0.5487" style="stop-color:#FFFFFF"/>
				<stop  offset="0.603" style="stop-color:#F9F9F9"/>
				<stop  offset="0.6767" style="stop-color:#E8E8E8"/>
				<stop  offset="0.7616" style="stop-color:#CBCBCB"/>
				<stop  offset="0.8547" style="stop-color:#A3A3A3"/>
				<stop  offset="0.95" style="stop-color:#737373"/>
				<stop  offset="1" style="stop-color:#8C8C8C"/>
			</radialGradient>
			<path class="st9" d="M25.4,8.1c0,4.5-5.1,8.1-11.4,8.1c-6.3,0-11.4-3.6-11.4-8.1C2.7,3.6,7.8,0,14.1,0C20.4,0,25.4,3.5,25.4,8.1z
				"/>
		</g>
		<linearGradient id="SVGID_8_" gradientUnits="userSpaceOnUse" x1="9.0949" y1="6.4423" x2="21.7057" y2="1.9201">
			<stop  offset="3.648600e-02" style="stop-color:#333333"/>
			<stop  offset="0.1207" style="stop-color:#3A3A3A"/>
			<stop  offset="0.2416" style="stop-color:#4D4D4D"/>
			<stop  offset="0.3848" style="stop-color:#6C6C6C"/>
			<stop  offset="0.545" style="stop-color:#979797"/>
			<stop  offset="0.7172" style="stop-color:#CECECE"/>
			<stop  offset="0.8533" style="stop-color:#FFFFFF"/>
		</linearGradient>
		<path class="st10" d="M18.8,1.3c-1.4,0.6-2.6,1.3-3.9,2.1c-1.8,1.2-3.3,2.7-4.7,4.2c0,0-0.1,0.1-0.1,0.1c0,0,0,0.1,0,0
			c0,0,0.1-0.1,0.1-0.1c0.4-0.4,0.8-0.7,1.2-1.1c3.3-3.5,7.6-5.4,8-5.6c0,0,0,0,0,0c0,0,0,0,0,0C19.4,1.1,19,1.2,18.8,1.3z"/>
		<path class="st8" d="M19.6,1C19.6,1,19.6,1,19.6,1C19.6,1,19.6,1,19.6,1C19.6,1,19.6,1,19.6,1z"/>
		<polygon class="st8" points="19.6,1 19.6,1 19.6,1 		"/>
		<linearGradient id="SVGID_9_" gradientUnits="userSpaceOnUse" x1="20.6136" y1="2.3102" x2="17.4468" y2="13.4901">
			<stop  offset="3.648600e-02" style="stop-color:#333333"/>
			<stop  offset="0.1207" style="stop-color:#3A3A3A"/>
			<stop  offset="0.2416" style="stop-color:#4D4D4D"/>
			<stop  offset="0.3848" style="stop-color:#6C6C6C"/>
			<stop  offset="0.545" style="stop-color:#979797"/>
			<stop  offset="0.7172" style="stop-color:#CECECE"/>
			<stop  offset="0.8533" style="stop-color:#FFFFFF"/>
		</linearGradient>
		<path class="st11" d="M18.2,6.3c-0.2,1.4-0.5,2.8-0.6,4.2c0,0.4,0,0.8,0,1.2c0.2,1,0.9,1.8,1.8,2.1c-1-0.5-1.8-1.6-1.7-3.1
			c0.1-1.4,0.4-2.7,0.6-4.1c0.1-0.5,0.2-1.2,0.1-1.8c0-0.3-0.2-0.8-0.4-1c0,0,0,0,0,0c0.2,0.2,0.2,0.5,0.3,0.7
			C18.4,5.2,18.3,5.7,18.2,6.3z"/>
		<linearGradient id="SVGID_10_" gradientUnits="userSpaceOnUse" x1="11.3795" y1="8.4268" x2="5.9012" y2="19.5759">
			<stop  offset="3.648600e-02" style="stop-color:#525252"/>
			<stop  offset="0.1304" style="stop-color:#595959"/>
			<stop  offset="0.2654" style="stop-color:#6C6C6C"/>
			<stop  offset="0.4252" style="stop-color:#8B8B8B"/>
			<stop  offset="0.6039" style="stop-color:#B6B6B6"/>
			<stop  offset="0.7962" style="stop-color:#EDEDED"/>
			<stop  offset="0.8533" style="stop-color:#FFFFFF"/>
		</linearGradient>
		<path class="st12" d="M15.2,4.9C14.8,5,14.4,5.2,14,5.4C12.9,6,12,6.7,11,7.6c-0.8,0.7-1.5,1.4-2.1,2.2c-0.8,1-1.6,2.1-2.3,3.3
			c-0.2,0.3-0.5,0.9-0.5,0.9l0,0.2c0,0,0.4-0.6,0.5-0.9c2.8-4.6,6-6.7,8-7.7c0.6-0.3,0.9-0.4,1.1-0.3C15.7,4.9,15.6,4.7,15.2,4.9z"
			/>
		
			<radialGradient id="SVGID_11_" cx="690.2485" cy="-1053.0809" r="8.6454" fx="690.7338" fy="-1053.0127" gradientTransform="matrix(0.1009 -0.6478 4.3558 0.4012 4536.6421 865.7902)" gradientUnits="userSpaceOnUse">
			<stop  offset="0.2812" style="stop-color:#FFFFFF"/>
			<stop  offset="1" style="stop-color:#FFFFFF;stop-opacity:0"/>
		</radialGradient>
		<path class="st13" d="M18.6,0.8c-1.2-0.3-2.8-0.7-4.9-0.7c-1.7,0-2.7,0.3-3.8,0.6C8.9,0.9,7.3,1.7,6.5,2.2c-0.7,0.5,1.4,2.9,6,0.9
			c2-0.9,3.7-1.4,4.4-1.6C18.1,1.1,18.9,0.9,18.6,0.8z"/>
		
			<radialGradient id="SVGID_12_" cx="638.923" cy="-933.5042" r="6.8814" fx="637.9426" fy="-933.5797" gradientTransform="matrix(0.1405 -0.6422 2.5836 0.3404 2347.717 727.7379)" gradientUnits="userSpaceOnUse">
			<stop  offset="0.2812" style="stop-color:#FFFFFF"/>
			<stop  offset="1" style="stop-color:#FFFFFF;stop-opacity:0"/>
		</radialGradient>
		<path class="st14" d="M22.3,2.7c-1-0.8-1.6-1-2.1-1.3c-0.3-0.1-0.7-0.3-0.9-0.1c-0.7,0.3-1.4,0.7-2.4,1.3c-2,1.2-1.6,1.2-0.1,0.9
			c0.4-0.1,0.8,0,1,0.1c0.8,0.5,1.1,0.9,0.8,2.8c-0.3,1.7,6.6,2.3,5.9-0.8C24.4,4.9,23.5,3.7,22.3,2.7z"/>
		<linearGradient id="SVGID_13_" gradientUnits="userSpaceOnUse" x1="8.8362" y1="5.8949" x2="17.7472" y2="4.1763">
			<stop  offset="3.648600e-02" style="stop-color:#333333"/>
			<stop  offset="0.1207" style="stop-color:#3A3A3A"/>
			<stop  offset="0.2416" style="stop-color:#4D4D4D"/>
			<stop  offset="0.3848" style="stop-color:#6C6C6C"/>
			<stop  offset="0.545" style="stop-color:#979797"/>
			<stop  offset="0.7172" style="stop-color:#CECECE"/>
			<stop  offset="0.8533" style="stop-color:#FFFFFF"/>
		</linearGradient>
		<path class="st15" d="M12.5,5.8c0,0,2-1.4,3.2-1.9c0.4-0.2,0.9-0.4,1.4-0.4c0.4,0,0.6,0,0.9,0.3C18.2,4,18.1,4,18,3.8
			c-0.2-0.3-0.6-0.3-0.9-0.3c-0.4,0-0.9,0.2-1.3,0.4C14.7,4.3,13.5,5.1,12.5,5.8c-0.2,0.1-0.4,0.2-0.4,0.3C12.2,6.1,12.3,6,12.5,5.8
			z"/>
		<path class="st16" d="M15.6,5.6c0.1-0.2,0.1-0.5,0-0.7c0.1,0.2,0,0.4-0.6,1.5c-0.6,1.2-1.1,2.2-1.7,3.6c-0.3,0.7-0.5,1.3-0.6,2
			c0,0.3-0.1,0.5,0,0.8c0-0.1,0-0.3,0-0.4C13,10.8,14.2,8.2,15.6,5.6z"/>
		<path class="st16" d="M11.4,3.7c2.4-1.4,4.4-2,7.4-3c-0.1,0,0,0-0.1,0c-0.1,0-2.7,0.4-7.2,2.9C6.1,6.5,4.4,8.7,3.4,9.9
			C4.6,8.7,5.8,7,11.4,3.7z"/>
	</g>
	<g>
		<g>
			<g>
				<path class="st17" d="M10.9,22.9h-0.6v2.4c0,0.1,0,0.2-0.1,0.2H9.4l0,0.5h0.9c0.2,0,0.3-0.1,0.4-0.2c0.1-0.1,0.2-0.2,0.2-0.4
					V22.9z"/>
				<polygon class="st17" points="9.2,24.3 7.8,25.7 8.7,25.7 10.1,24.3 				"/>
				<polygon class="st17" points="11.9,24.3 13.4,25.7 12.4,25.7 11,24.3 				"/>
				<path class="st17" d="M13.9,24.3c-0.5-0.4-1.3-1.1-1.7-1.6h1.3v-0.5H10c0-0.1,0.1-0.3,0.2-0.4H13v-0.5h-2.6
					c0.1-0.1,0.1-0.3,0.1-0.3h2.7v-0.5h-2.6c0-0.1,0-0.2,0.1-0.3l0,0h-0.7l0,0c0,0.1-0.1,0.3-0.1,0.3H7.8v0.5h2.1
					c0,0.1-0.1,0.3-0.1,0.3H8.1v0.5h1.4c-0.1,0.1-0.1,0.3-0.2,0.4H7.6v0.5H9c-0.5,0.7-1,1.1-1.7,1.6l0,0h0.9l0,0
					c0.3-0.2,0.5-0.4,0.8-0.7l0.4,0.5h0.8l-0.7-0.9c0.1-0.2,0.2-0.3,0.3-0.5h1.7c0.1,0.1,0.2,0.3,0.3,0.5l-0.7,1h0.8l0.4-0.5
					c0.1,0.1,0.5,0.5,0.8,0.7l0,0L13.9,24.3L13.9,24.3z"/>
			</g>
			<g>
				<polygon class="st17" points="2.9,21.6 1.8,21.6 1.8,20.7 2.8,20.6 2.8,20 0.2,20.4 0.1,20.4 0.1,20.9 1.1,20.8 1.1,21.6 
					0,21.6 0,22.1 1.1,22.1 1.1,26 1.8,26 1.8,22.1 2.9,22.1 				"/>
				<path class="st17" d="M5.8,20.6c-0.1-0.1-0.3-0.2-0.5-0.2H3.9c-0.2,0-0.3,0.1-0.4,0.2c-0.1,0.1-0.2,0.3-0.2,0.4v4.4
					c0,0.2,0.1,0.3,0.2,0.4C3.6,25.9,3.7,26,3.8,26h1.5c0.2,0,0.3,0,0.4-0.1c0.1-0.1,0.2-0.2,0.2-0.4v-4.3
					C5.9,20.9,5.9,20.7,5.8,20.6z M5.2,21v4.3c0,0.1,0,0.1-0.1,0.1H4.1c-0.1,0-0.1,0-0.1-0.1v-4.3C4,21,4,21,4.1,21h1.1
					C5.2,21,5.2,21,5.2,21z"/>
				<path class="st17" d="M0.4,22.4c0,0.1-0.3,2-0.4,3l0,0h0.6l0.4-3H0.4z"/>
				<path class="st17" d="M3,25.4c-0.1-0.9-0.4-2.8-0.4-3H2l0.4,3L3,25.4L3,25.4z"/>
			</g>
			<g>
				<path class="st17" d="M20.7,23.9h-2.3v-0.4h2.2l0-0.5h-2.2v-0.4h2v-0.5h-2v-0.3h2v-0.5h-2v-0.3h2.2v-0.5h-2.1
					c-0.1-0.2-0.2-0.3-0.2-0.5l0,0h-0.6l0,0c0.1,0.2,0.1,0.4,0.2,0.5h-1.2c0.2-0.2,0.3-0.4,0.4-0.5l0,0h-0.8l0,0
					c-0.3,0.4-0.8,0.9-1.3,1.3l0,0h0.7v1.6c0,0.2,0,0.3,0.1,0.4c0.1,0.1,0.3,0.2,0.4,0.2h1.6v0.4H15v0.5h2.7V26h0.7v-1.6h2.3V23.9z
					 M17.7,23h-1.3c-0.1,0-0.2-0.1-0.2-0.2v-0.2h1.5V23z M17.7,22.2h-1.5v-0.3h1.5V22.2z M17.7,21.4h-1.5v-0.3h1.5V21.4z"/>
				<polygon class="st17" points="15.2,25.9 16.1,25.9 17.5,24.7 16.6,24.7 				"/>
				<polygon class="st17" points="19.4,24.7 18.5,24.7 19.9,26 20.9,26 				"/>
			</g>
			<g>
				<path class="st17" d="M26.5,23.8h-0.6V24h-2.8v0.4h2.8v0.4c0,0.1-0.1,0.1-0.1,0.1h-0.5l0.2,0.4l0,0H26c0.2,0,0.3-0.1,0.4-0.2
					c0.1-0.1,0.1-0.2,0.1-0.4v-0.4h0.7V24h-0.7V23.8z"/>
				<path class="st17" d="M27.9,20.2c-0.1-0.1-0.3-0.2-0.5-0.2h-4.5c-0.2,0-0.3,0.1-0.4,0.2c-0.1,0.1-0.2,0.3-0.2,0.4v4.7
					c0,0.2,0.1,0.4,0.2,0.5c0.1,0.1,0.3,0.2,0.5,0.2h4.6c0.2,0,0.4-0.1,0.5-0.2c0.1-0.1,0.1-0.2,0.1-0.4v-4.6
					C28.1,20.5,28,20.4,27.9,20.2z M27.5,25.3c0,0.1-0.1,0.2-0.2,0.2h-4.2c-0.1,0-0.2-0.1-0.2-0.2v-4.6c0-0.1,0.1-0.2,0.2-0.2h4.2
					c0.1,0,0.2,0.1,0.2,0.2V25.3z"/>
				<polygon class="st17" points="23.9,24.6 24.2,25.3 24.9,25.3 24.6,24.6 				"/>
				<path class="st17" d="M24.9,21.5h-1c-0.1,0-0.3,0.1-0.4,0.1c-0.1,0.1-0.2,0.2-0.2,0.4v0.5c0,0.2,0.1,0.3,0.2,0.4
					c0.1,0.1,0.2,0.1,0.4,0.1h1v0.2l-1.8,0.1l0,0.4l3.6-0.1l0,0.2h0.5L27.1,23h-0.3c0,0,0.1,0,0.1-0.1c0.1-0.1,0.2-0.2,0.2-0.4v-0.4
					c0-0.2,0-0.3-0.1-0.4c-0.1-0.1-0.3-0.2-0.4-0.2h-1v-0.2h1.7v-0.4h-1.7v-0.3h-0.6v0.3h-1.8v0.4h1.8V21.5z M23.9,22
					c0-0.1,0-0.1,0.1-0.1c0.1,0,0.8,0,0.8,0v0.2L23.9,22C23.9,22.1,23.9,22.1,23.9,22z M24,22.7c-0.1,0-0.1-0.1-0.1-0.1
					c0-0.1,0-0.1,0-0.1h1v0.2C24.9,22.7,24.1,22.7,24,22.7z M25.5,21.9c0,0,0.7,0,0.8,0c0.1,0,0.1,0,0.1,0.1c0,0,0,0.1,0,0.1h-0.9
					V21.9z M25.5,22.5h0.9c0,0,0,0,0,0.1c0,0.1,0,0.1-0.1,0.1c-0.1,0-0.8,0-0.8,0V22.5z M26.4,23.1c0.1,0,0.1,0,0.2,0l0,0.2l-1.2,0
					v-0.2C25.5,23.1,26.2,23.1,26.4,23.1z"/>
			</g>
		</g>
	</g>
	<g>
		<rect x="35.9" y="0.2" class="st17" width="0.4" height="25.9"/>
	</g>
	<g>
		<g>
			<g id="XMLID_89_">
				<rect id="XMLID_190_" x="107.6" y="7.4" class="st17" width="7.9" height="1.4"/>
				<polygon id="XMLID_189_" class="st17" points="78.6,10.5 76.3,10.5 76.3,8.6 78.4,8.3 78.4,7.1 72.8,7.9 72.7,7.9 72.7,9 
					74.9,8.8 74.9,10.5 72.5,10.5 72.5,11.6 74.9,11.6 74.9,19.9 76.3,19.9 76.3,11.6 78.6,11.6 				"/>
				<path id="XMLID_186_" class="st17" d="M83.7,7.9h-2.9c-0.4,0-0.7,0.1-1,0.3c-0.3,0.2-0.4,0.5-0.4,0.9v9.3c0,0.3,0.1,0.7,0.4,0.9
					c0.2,0.3,0.5,0.4,0.8,0.4h3.2c0.4,0,0.7-0.1,0.9-0.3c0.2-0.2,0.4-0.5,0.4-0.9V9.4c0-0.4-0.1-0.8-0.4-1.1
					C84.5,8.1,84.2,7.9,83.7,7.9z M83.6,18.5c0,0.2-0.1,0.2-0.2,0.2h-2.3c-0.2,0-0.2-0.1-0.2-0.2V9.4c0-0.2,0.1-0.2,0.2-0.2h2.3
					c0.2,0,0.2,0.1,0.2,0.2V18.5z"/>
				<path id="XMLID_185_" class="st17" d="M72.4,18.5L72.4,18.5l1.3,0.1l0.8-6.4h-1.3C73.2,12.4,72.7,16.5,72.4,18.5z"/>
				<path id="XMLID_184_" class="st17" d="M78,12.2h-1.3l0.8,6.4h1.3l0-0.1C78.5,16.5,78,12.4,78,12.2z"/>
				<path id="XMLID_183_" class="st17" d="M87.7,16.9h3.1l-1.2,1.6c0,0,0,0,0,0c0,0,0,0,0,0.1l0,0c0,0,0,0,0,0
					c-0.2,0.3-0.2,0.6,0,0.9c0.2,0.2,0.4,0.4,0.7,0.4h7.7l0.2-0.6c0.2,0.2,0.3,0.3,0.4,0.5l0,0h1.7l-0.2-0.2
					c-0.7-0.7-1.3-1.5-1.8-2.3h-1.6c0.3,0.5,0.6,0.9,0.9,1.3h-6.1l1.5-1.8h7.5v-1.1H87.7V16.9z"/>
				<rect id="XMLID_182_" x="88.8" y="14" class="st17" width="10.4" height="1.1"/>
				<rect id="XMLID_181_" x="89.8" y="12.1" class="st17" width="3" height="1"/>
				<path id="XMLID_180_" class="st17" d="M99.7,8.3V7.2H88.2v1.1h5V9h-4.1c-0.4,0-0.7,0.1-1,0.4c-0.2,0.2-0.3,0.6-0.3,0.9v3.2h1.5
					v-3.1c0-0.1,0.1-0.2,0.2-0.2h3.7v3.3h1.6v-3.3h3.8c0.1,0,0.2,0.1,0.2,0.2v3h1.5v-3.3c0-0.3-0.1-0.6-0.3-0.8
					C99.8,9.1,99.5,9,99.2,9h-4.4V8.3H99.7z"/>
				<rect id="XMLID_179_" x="89.8" y="10.7" class="st17" width="3" height="1"/>
				<rect id="XMLID_178_" x="95.2" y="10.7" class="st17" width="3.1" height="1"/>
				<rect id="XMLID_177_" x="95.2" y="12.1" class="st17" width="3.1" height="1"/>
				<path id="XMLID_176_" class="st17" d="M107,12.5h5.3v6c0,0.1-0.1,0.1-0.1,0.1H110v1.2h2.7c0.6,0,1.2-0.5,1.2-1.1v-6.2h1.9v-1.4
					H107V12.5z"/>
				<path id="XMLID_175_" class="st17" d="M104.7,10.7c0.7-1,1.6-2.3,2.2-3.6h-1.7c-0.6,1.2-1.5,2.5-2.3,3.6H104.7z"/>
				<path id="XMLID_174_" class="st17" d="M105.4,10.8c-0.6,1.2-1.7,2.8-2.5,3.9h1.8v5.2h1.5v-7.4c0.4-0.6,0.7-1.2,1-1.7H105.4z"/>
				<g id="XMLID_166_">
					<path id="XMLID_173_" class="st17" d="M129.5,9.6h-1.5c0-1.5,0-2.4,0-2.4h-1.2c0,0,0,0.9,0,2.4h-1.5v1.1h1.5
						c-0.1,3-0.3,6.8-1.5,9.2h1.3c1.1-2,1.3-6.3,1.4-9.2h1.2c0.2,0,0.3,0.1,0.3,0.3v7.6c0,0.2-0.1,0.3-0.3,0.3h-1.5l0,1.1h1.7
						c0.4,0,0.7-0.1,1-0.4c0.3-0.2,0.4-0.6,0.4-0.9v-7.7c0-0.3-0.1-0.6-0.4-0.9C130.2,9.7,129.9,9.6,129.5,9.6z"/>
					<path id="XMLID_167_" class="st17" d="M122.5,17.6h2.5v-1.1h-2.5v-0.6h0h1c0.5,0,0.8-0.1,1.1-0.3c0.2-0.2,0.4-0.5,0.4-0.9v-2.4
						c0-0.4-0.1-0.7-0.4-0.9c-0.2-0.2-0.5-0.3-0.9-0.3h-1.1v-0.5h2.6V9.5h-2.6V8.8c0.6-0.1,1.6-0.2,2.1-0.3l0.1,0V7.3l-0.1,0
						c-1.6,0.4-4.3,0.7-5.7,0.7l-0.1,0v1.1l0.1,0c0.6,0,1.7-0.1,2.3-0.2v0.6h-2.7v1.1h2.7v0.5h-1.2c-0.3,0-0.5,0.1-0.8,0.2
						c-0.3,0.2-0.5,0.6-0.5,0.9v2.4c0,0.4,0.1,0.7,0.4,0.9c0.2,0.2,0.6,0.3,0.9,0.3h1.2h0v0.6h-2.5v1.1h2.5v0.9l-2.5,0.3v1.1
						c3.8-0.4,6.5-0.7,6.5-0.7l0-1.1l-2.7,0.3V17.6z M122.5,12.1h0.8c0.1,0,0.2,0.1,0.2,0.2v0.5h-1.1V12.1z M122.5,14h1.1v0.6
						c0,0.1-0.1,0.2-0.2,0.2h-0.8V14z M121.1,14.8h-0.9c-0.1,0-0.2-0.1-0.2-0.2V14h1.1V14.8z M121.1,12.9H120v-0.5
						c0-0.1,0.1-0.2,0.2-0.2h0.9V12.9z"/>
				</g>
				<g id="XMLID_158_">
					<path id="XMLID_162_" class="st17" d="M136.9,7.4h-2.1c-0.4,0-0.7,0.1-0.9,0.4c-0.2,0.2-0.3,0.5-0.3,0.8v7.2
						c0,1.5-0.1,2.9-0.4,4l0,0.1h1.4l0-0.1c0.2-1.1,0.3-2.6,0.4-4.6h1.8v3.3c0,0.1,0,0.2-0.3,0.2h-1.2l0,1.2h1.5
						c0.4,0,0.7-0.1,1-0.3c0.2-0.2,0.4-0.5,0.4-0.9v-6.1v-0.1V8.6c0-0.4-0.1-0.7-0.3-0.9C137.5,7.5,137.2,7.4,136.9,7.4z M136.7,14
						h-1.8c0-0.4,0-1.1,0-2.2h1.8V14z M136.7,10.6h-1.7V8.7c0-0.1,0-0.2,0.2-0.2h1.4c0.1,0,0.2,0,0.2,0.2V10.6z"/>
					<path id="XMLID_159_" class="st17" d="M145.2,14c0.1-0.4,0.1-0.8-0.1-1c-0.2-0.3-0.5-0.5-0.8-0.5h-4.1V8.7
						c0-0.1,0.1-0.3,0.2-0.3h3.1c0.2,0,0.3,0.1,0.3,0.3v1.9c0,0.2-0.1,0.3-0.2,0.3h-2.3V12h2.5c0.4,0,0.7-0.1,0.9-0.3
						c0.2-0.2,0.4-0.6,0.4-1V8.6c0-0.3-0.1-0.6-0.3-0.9c-0.2-0.3-0.5-0.4-0.8-0.4h-4c-0.2,0-0.5,0.1-0.7,0.3
						c-0.3,0.2-0.5,0.6-0.5,0.9v11.4h2.7l0,0c0.3-0.3,0.8-0.9,1.1-1.4c0.5,0.7,1.1,1.4,1.1,1.4h1.6c0,0-1.3-1.6-1.9-2.5
						C144.1,16.2,144.9,14.9,145.2,14z M142.7,16.1c-0.3-0.6-0.6-1.3-0.8-2.1h-1.4c0.4,1.3,1,2.4,1.5,3.3c-0.5,0.7-1.4,1.8-1.8,2.2
						v-6h0.2h0.1h1.3h0.2h1.8c0,0,0.1,0,0.1,0.1c0,0,0,0.1,0,0.1C143.7,14.5,143.1,15.4,142.7,16.1z"/>
				</g>
				<g id="XMLID_90_">
					<path id="XMLID_100_" class="st17" d="M160,13.5C160,13.4,159.9,13.4,160,13.5c-0.7-0.5-2.1-1.5-2.7-2c0.6-0.6,1.4-1.6,1.8-2.2
						h0.8V8.1h-4.2c0.1-0.3,0.3-0.7,0.4-0.9l0-0.1h-1.5l0,0c-0.4,1.1-0.9,2.2-1.9,3.3l-0.1,0.1h1.7c0.2,0.3,0.7,0.7,1,1
						c-0.6,0.5-1.5,1.2-2.1,1.6v-0.7c0-0.4-0.1-0.7-0.3-0.9c-0.2-0.2-0.5-0.3-0.9-0.3h-0.8l0,0c0.5-0.6,1.5-1.5,2-2.4
						c0.2-0.3,0.2-0.7,0-0.9c-0.2-0.3-0.5-0.5-0.8-0.5h-4.3v1.1h3.7c0,0,0.1,0,0.1,0c0,0,0,0,0,0.1c0,0-0.9,1-1.3,1.5
						c-0.2-0.2-0.5-0.9-0.5-0.9h-1.5l0,0.1c0.2,0.6,0.8,1.4,1.1,2h-1.7v1.2h2.2v5.9c0,0.2-0.1,0.3-0.3,0.3H149v1.2h1.2
						c0.4,0,0.8-0.1,1-0.4c0.2-0.2,0.3-0.5,0.3-0.9v-6.1h0.2c0.1,0,0.2,0.1,0.2,0.2v3.2h1.3v-2.2h1.7l0,0c0.4-0.3,1-0.8,1.4-1.1
						c0.4,0.3,1.2,0.9,1.7,1.1l0,0L160,13.5C160,13.6,160,13.5,160,13.5z M154.8,9.8c0.1-0.2,0.3-0.5,0.3-0.6h2.3
						c-0.3,0.5-0.8,1-1.1,1.4c-0.2-0.2-0.6-0.6-0.8-0.8l0,0H154.8z"/>
					<path id="XMLID_92_" class="st17" d="M154.2,19.8c1-0.8,2.2-2.2,2.5-4.1h1.3c0.1,0,0.2,0.1,0.2,0.2v2.4c0,0.2-0.1,0.3-0.2,0.3
						h-1.4v1.2h1.6c0.5,0,0.9-0.1,1.1-0.4c0.2-0.3,0.4-0.6,0.4-1.1V16c0-0.4-0.1-0.8-0.3-1c-0.2-0.3-0.5-0.4-0.9-0.4h-1.6
						c0-0.3,0.1-0.8,0.1-1.1l0-0.1h-1.4l0,0.1c0,0.3,0,0.8-0.1,1.1h-2.2v1.2h2c-0.2,1.4-1.3,2.8-3,4l-0.2,0.1"/>
					<polygon id="XMLID_91_" class="st17" points="150,13 148.7,13 147.9,18.1 149.2,18.1 					"/>
				</g>
			</g>
		</g>
		<g>
			<g id="XMLID_583_">
				<polygon id="XMLID_589_" class="st18" points="59,17.6 58.8,18.7 57.8,18.7 58,17.6 57.6,17.6 57,20.4 57.5,20.4 57.7,19.1 
					58.7,19.1 58.4,20.4 58.9,20.4 59.4,17.6 				"/>
				<polygon id="XMLID_588_" class="st18" points="59.8,18.1 60.3,18.1 60.4,17.6 59.9,17.6 				"/>
				<polygon id="XMLID_587_" class="st18" points="59.4,20.4 59.9,20.4 60.3,18.3 59.8,18.3 				"/>
				<polygon id="XMLID_586_" class="st18" points="60.5,19.4 61.6,19.4 61.7,18.9 60.6,18.9 				"/>
				<polygon id="XMLID_585_" class="st18" points="64.3,17.6 64.3,17.6 64.3,17.6 64,17.6 63.2,18.9 63,17.6 62.4,17.6 61.9,20.4 
					62.3,20.4 62.7,18.5 62.9,19.7 63.2,19.7 63.9,18.6 63.6,20.4 64,20.4 64.6,17.6 				"/>
				<path id="XMLID_584_" class="st18" d="M66.4,17.6c-0.1,0-0.3-0.1-0.4-0.1c-0.3,0-0.5,0.1-0.7,0.2c-0.2,0.2-0.3,0.3-0.4,0.6
					c0,0.2,0,0.4,0.1,0.5c0.1,0.1,0.2,0.2,0.4,0.3c0.1,0,0.2,0,0.3,0.1c0.1,0,0.2,0,0.2,0.1c0.1,0,0.1,0.1,0.1,0.1c0,0,0,0.1,0,0.2
					c0,0.1-0.1,0.2-0.2,0.3c-0.1,0.1-0.2,0.1-0.4,0.1c-0.1,0-0.2,0-0.4-0.1c-0.1-0.1-0.2-0.1-0.3-0.2l0,0h-0.1l-0.1,0.6l0.1,0
					c0.1,0.1,0.3,0.1,0.4,0.2c0.1,0,0.3,0.1,0.4,0.1c0.2,0,0.3,0,0.4-0.1c0.1,0,0.2-0.1,0.3-0.2c0.1-0.1,0.2-0.2,0.2-0.3
					c0.1-0.1,0.1-0.2,0.1-0.3c0-0.2,0-0.4-0.1-0.5c-0.1-0.1-0.2-0.2-0.4-0.3c-0.1,0-0.2,0-0.3-0.1c-0.1,0-0.2,0-0.3-0.1
					c-0.1,0-0.1-0.1-0.2-0.1c0,0,0-0.1,0-0.2c0-0.1,0.1-0.2,0.2-0.2c0.1-0.1,0.2-0.1,0.4-0.1c0.1,0,0.3,0,0.4,0.1
					c0.1,0,0.2,0.1,0.3,0.2l0,0h0.1l0.1-0.5l-0.1,0C66.6,17.7,66.5,17.7,66.4,17.6z"/>
			</g>
			<path id="XMLID_582_" class="st18" d="M64.7,10.1c-2-0.8-4.1-0.1-5.6,1.5c-0.8,0.8-1.4,1.6-2.1,2.5c-0.8,0.9-1.6,1.8-2.6,2.5
				c-1.8,1.4-4.1,2.1-6.2,0.9c-1.5-0.8-2.2-2.6-1.6-4.2c0.7-1.9,2.8-2.9,4.7-2.7c1.8,0.1,3.5,1,4.7,2.3c0.1,0.1,0.2,0.2,0.2,0.2
				c0,0,0.1,0.1,0.1,0.1c0,0,0.1,0,0.1,0c0,0,0.1-0.1,0.1-0.1c0-0.1,0-0.1,0-0.1c0,0-0.1-0.2-0.2-0.2c-1.4-1.8-3.6-3.3-5.9-3.3
				c-3.6,0-6.7,3.3-6.1,6.9c0.7,4,5.4,5.7,8.9,4.1c2-0.9,3.5-2.6,4.7-4.4c1.2-1.8,2.3-4.6,4.9-4.3c1,0.1,2,0.6,2.3,1.7
				c0.3,0.9,0,1.9-0.7,2.4c-0.9,0.6-2.3,0.6-3.3,0.4c-0.5-0.1-1-0.4-1.4-0.7c-0.1-0.1-0.2-0.3-0.3-0.3c-0.1,0-0.2,0-0.2,0.1
				c0,0,0,0.1,0,0.1c0,0,0,0.1,0,0.1c0,0,0,0,0.1,0.1c0.1,0.1,0.2,0.2,0.3,0.3c1.7,1.7,4.7,2.1,6.6,0.5C68.3,14.2,67.2,11,64.7,10.1
				z"/>
			<path id="XMLID_581_" class="st18" d="M61.8,9.2c-0.1-1.9-1.8-3.3-3.2-3.7c-1.9-0.7-4.1-0.4-5.9,0.6c-0.2,0.1-0.3,0.2-0.4,0.2
				c-0.7,0.5-1.6,1.6-1.9,2.4c0,0,0,0,0,0.1c0,0,0,0,0,0c1-0.1,2.1,0.3,2.6,0.6c0,0,0.1,0,0.1,0C53.8,8.2,55,7.1,56,6.8
				c1.4-0.5,3-0.2,4.3,0.7c0.6,0.5,1.1,1.1,1.3,1.7c0,0,0,0.1,0.1,0.1c0,0,0,0,0.1,0C61.8,9.2,61.8,9.2,61.8,9.2z"/>
		</g>
	</g>
</g>
<g>
	<g>
		<g>
			<path class="st17" d="M172.3,17H171v-2.3c0-0.5,0-0.8-0.1-0.9c-0.1-0.2-0.4-0.4-0.7-0.4c-0.4,0-0.7,0.2-0.9,0.5
				c-0.1,0.2-0.1,0.5-0.1,0.9V17h-1.3V11h1.3v2.2c0.2-0.2,0.4-0.4,0.7-0.5c0.3-0.1,0.5-0.2,0.8-0.2c0.2,0,0.4,0,0.6,0.1
				c0.2,0.1,0.4,0.1,0.5,0.3c0.2,0.1,0.4,0.4,0.4,0.7c0,0.2,0.1,0.5,0.1,0.8V17z"/>
			<path class="st17" d="M176.1,16.9c-0.2,0.1-0.4,0.1-0.6,0.1c-0.2,0-0.3,0-0.4,0c-0.2,0-0.4,0-0.6-0.1c-0.2-0.1-0.4-0.2-0.5-0.3
				c-0.1-0.1-0.1-0.3-0.2-0.4c0-0.1,0-0.4,0-0.8v-1.9h-0.6v-0.9h0.6v-0.8l1.3-0.7v1.5h0.9v0.9h-0.9v1.7c0,0.3,0,0.5,0,0.7
				c0,0.1,0.1,0.2,0.3,0.2c0.1,0,0.2,0,0.2,0c0.1,0,0.1,0,0.2-0.1l0,0L176.1,16.9z"/>
			<path class="st17" d="M180,16.9c-0.2,0.1-0.4,0.1-0.6,0.1c-0.2,0-0.4,0-0.4,0c-0.2,0-0.4,0-0.6-0.1c-0.2-0.1-0.4-0.2-0.4-0.3
				c-0.1-0.1-0.1-0.3-0.2-0.4c0-0.1,0-0.4,0-0.8v-1.9h-0.6v-0.9h0.6v-0.8l1.3-0.7v1.5h0.9v0.9H179v1.7c0,0.3,0,0.5,0,0.7
				c0,0.1,0.1,0.2,0.3,0.2c0.1,0,0.2,0,0.2,0c0.1,0,0.1,0,0.2-0.1l0,0L180,16.9z"/>
			<path class="st17" d="M184.2,15.7c-0.2,0.3-0.5,0.5-0.9,0.5c-0.3,0-0.6-0.1-0.8-0.3c-0.2-0.2-0.3-0.5-0.3-1c0-0.3,0-0.5,0.1-0.7
				c0.1-0.2,0.2-0.3,0.3-0.5c0.1-0.1,0.2-0.2,0.3-0.2c0.1,0,0.2-0.1,0.3-0.1c0.3,0,0.5,0.1,0.7,0.3c0.2,0.2,0.3,0.6,0.3,1.1
				C184.4,15.2,184.3,15.5,184.2,15.7z M185.1,13.1c-0.4-0.4-0.8-0.6-1.4-0.6c-0.2,0-0.4,0-0.7,0.1c-0.3,0.1-0.6,0.3-0.8,0.6v-0.6
				H181v5.9h1.3v-2.1c0.2,0.1,0.3,0.3,0.5,0.4c0.3,0.2,0.6,0.2,0.9,0.2c0.6,0,1-0.2,1.4-0.5c0.4-0.4,0.6-1,0.6-1.7
				C185.7,14.1,185.5,13.6,185.1,13.1z"/>
			<path class="st17" d="M187.9,15.8h-1.2V17h1.2V15.8z M187.9,12.7h-1.2v1.1h1.2V12.7z"/>
			<path class="st17" d="M191.5,11l-1.6,6.1H189l1.6-6.1H191.5z"/>
			<path class="st17" d="M195.1,11l-1.6,6.1h-0.9l1.6-6.1H195.1z"/>
			<path class="st17" d="M203.3,12.7l-1.5,4.3h-1.2l-0.8-2.8l-0.8,2.8h-1.2l-1.5-4.3h1.2l0.9,2.8l0.8-2.8h1.2l0.8,2.8l0.9-2.8H203.3
				z"/>
			<path class="st17" d="M211.5,12.7L210,17h-1.2l-0.8-2.8l-0.8,2.8h-1.2l-1.5-4.3h1.2l0.9,2.8l0.8-2.8h1.2l0.8,2.8l0.9-2.8H211.5z"
				/>
			<path class="st17" d="M219.7,12.7l-1.5,4.3h-1.2l-0.8-2.8l-0.8,2.8h-1.2l-1.5-4.3h1.2l0.9,2.8l0.8-2.8h1.2l0.8,2.8l0.9-2.8H219.7
				z"/>
			<path class="st17" d="M221.6,15.8h-1.3V17h1.3V15.8z"/>
		</g>
		<path class="st17" d="M280,17h-1.3v-1.1h1.3V17z"/>
		<path class="st17" d="M286.4,15.5c-0.3,1-1,1.6-2.2,1.6c-0.9,0-1.5-0.3-1.9-0.9c-0.3-0.4-0.4-0.8-0.4-1.4c0-0.6,0.2-1.1,0.5-1.5
			c0.4-0.5,1-0.8,1.9-0.8c0.7,0,1.2,0.2,1.6,0.5c0.2,0.2,0.4,0.5,0.6,0.9l-1.3,0.2c0-0.2-0.1-0.3-0.2-0.4c-0.2-0.1-0.4-0.2-0.7-0.2
			c-0.4,0-0.8,0.2-0.9,0.5c-0.1,0.2-0.1,0.4-0.1,0.7c0,0.9,0.4,1.4,1.1,1.4c0.3,0,0.5-0.1,0.7-0.3c0.1-0.1,0.2-0.3,0.2-0.5
			L286.4,15.5z"/>
		<path class="st17" d="M290.7,15.9c-0.2,0.2-0.5,0.3-0.8,0.3c-0.3,0-0.6-0.1-0.8-0.3c-0.2-0.2-0.4-0.6-0.4-1c0-0.4,0.1-0.8,0.4-1
			c0.2-0.2,0.5-0.3,0.8-0.3c0.3,0,0.6,0.1,0.8,0.3c0.2,0.2,0.3,0.6,0.3,1C291.1,15.3,291,15.6,290.7,15.9z M291.8,13.3
			c-0.5-0.5-1.1-0.7-1.9-0.7c-0.8,0-1.4,0.2-1.9,0.7c-0.4,0.4-0.6,0.9-0.6,1.5c0,0.9,0.3,1.5,1,1.9c0.4,0.3,0.9,0.4,1.5,0.4
			c0.7,0,1.3-0.2,1.8-0.7c0.4-0.4,0.7-1,0.7-1.6C292.4,14.2,292.2,13.7,291.8,13.3z"/>
		<path class="st17" d="M300.6,17h-1.3v-2.5c0-0.3,0-0.6-0.1-0.7c-0.1-0.2-0.3-0.3-0.6-0.3c-0.2,0-0.3,0-0.5,0.1
			c-0.1,0.1-0.2,0.2-0.3,0.3c0,0.1-0.1,0.3-0.1,0.4c0,0.1,0,0.3,0,0.6V17h-1.3v-2.4c0-0.4,0-0.6,0-0.7c-0.1-0.3-0.3-0.5-0.6-0.5
			c-0.2,0-0.4,0-0.5,0.1c-0.2,0.1-0.2,0.2-0.3,0.3c-0.1,0.1-0.1,0.2-0.1,0.4c0,0.1,0,0.3,0,0.6V17h-1.3v-4.3h1.2v0.6
			c0.2-0.3,0.5-0.5,0.8-0.6c0.2-0.1,0.4-0.1,0.7-0.1c0.4,0,0.7,0.1,1,0.3c0.1,0.1,0.3,0.2,0.4,0.4c0.2-0.2,0.3-0.3,0.5-0.4
			c0.3-0.2,0.6-0.2,1-0.2c0.7,0,1.1,0.2,1.4,0.6c0.1,0.2,0.2,0.6,0.2,1V17z"/>
		<path class="st17" d="M303,17h-1.3v-1.1h1.3V17z"/>
		<path class="st17" d="M306.9,16.9c-0.2,0.1-0.3,0.1-0.6,0.1c-0.2,0-0.3,0-0.4,0c-0.2,0-0.4,0-0.6-0.1c-0.2-0.1-0.4-0.2-0.4-0.3
			c-0.1-0.1-0.1-0.3-0.2-0.4c0-0.1,0-0.4,0-0.8v-1.9h-0.6v-0.9h0.6v-0.8l1.3-0.7v1.5h0.9v0.9h-0.9v1.7c0,0.3,0,0.5,0,0.7
			c0,0.1,0.1,0.2,0.3,0.2c0.1,0,0.2,0,0.2,0c0.1,0,0.1,0,0.2-0.1l0,0L306.9,16.9z"/>
		<path class="st17" d="M315.2,12.7l-1.5,4.3h-1.2l-0.8-2.8l-0.8,2.8h-1.2l-1.5-4.3h1.2l0.9,2.8l0.8-2.8h1.2l0.8,2.8l0.9-2.8H315.2z
			"/>
	</g>
	<g>
		<path class="st19" d="M228.1,9.9l-2,5.5c-0.2,0.4-0.2,0.7-0.2,0.9c0,0.1,0.1,0.2,0.2,0.3c0.1,0.1,0.3,0.1,0.6,0.1l-0.1,0.3h-3.4
			l0.1-0.3c0.3,0,0.6,0,0.7-0.1c0.1-0.1,0.3-0.2,0.4-0.3c0.1-0.2,0.3-0.4,0.4-0.9l1-2.6c0.3-0.7,0.4-1.2,0.5-1.4c0-0.2,0-0.3,0-0.3
			c-0.1-0.1-0.1-0.1-0.3-0.1c-0.1,0-0.3,0-0.6,0.1l0-0.3l2.4-0.8H228.1z M228.8,6.3c0.2,0,0.4,0.1,0.5,0.2c0.1,0.1,0.1,0.3,0,0.5
			c-0.1,0.2-0.2,0.4-0.4,0.5c-0.2,0.2-0.4,0.2-0.6,0.2c-0.2,0-0.4-0.1-0.5-0.2c-0.1-0.1-0.1-0.3,0-0.5c0.1-0.2,0.2-0.4,0.4-0.5
			C228.4,6.4,228.6,6.3,228.8,6.3z"/>
		<path class="st19" d="M237.7,16.9H235l-1.7-4.8c-0.3,0-0.5,0-0.6,0c-0.1,0-0.1,0-0.2,0c-0.1,0-0.2,0-0.2,0l-1.1,3
			c-0.2,0.6-0.3,1-0.2,1.2c0.1,0.2,0.4,0.3,0.7,0.3h0.4l-0.1,0.3h-4.4l0.1-0.3h0.4c0.4,0,0.8-0.1,1.1-0.4c0.2-0.2,0.3-0.5,0.6-1.1
			l2.4-6.6c0.2-0.6,0.3-1,0.2-1.2c-0.1-0.2-0.4-0.3-0.8-0.3h-0.4l0.1-0.3h3.7c1.1,0,1.9,0.1,2.3,0.2c0.5,0.2,0.8,0.4,1,0.9
			c0.2,0.4,0.2,0.9,0,1.5c-0.2,0.6-0.6,1.2-1.2,1.6c-0.6,0.5-1.3,0.8-2.3,1l1.1,2.9c0.2,0.7,0.5,1.1,0.8,1.3s0.7,0.4,1.2,0.4
			L237.7,16.9z M232.3,11.7c0.1,0,0.2,0,0.2,0c0.1,0,0.1,0,0.2,0c1,0,1.8-0.2,2.4-0.6c0.7-0.4,1.1-1,1.3-1.6c0.2-0.6,0.2-1.2,0-1.5
			c-0.3-0.4-0.7-0.6-1.4-0.6c-0.3,0-0.7,0-1.2,0.1L232.3,11.7z"/>
		<path class="st19" d="M240.5,12.7c-0.4,1-0.4,1.8-0.1,2.4c0.3,0.6,0.8,0.9,1.5,0.9c0.5,0,0.9-0.1,1.3-0.4c0.4-0.2,0.9-0.7,1.3-1.3
			l0.2,0.1c-0.4,0.7-0.9,1.3-1.6,1.9c-0.7,0.6-1.5,0.8-2.2,0.8c-0.8,0-1.4-0.3-1.8-1c-0.4-0.6-0.3-1.5,0.1-2.6
			c0.4-1.2,1.1-2.1,1.9-2.7c0.8-0.7,1.7-1,2.7-1c0.8,0,1.3,0.3,1.6,0.8c0.3,0.5,0.3,1.2,0,2H240.5z M240.6,12.2h3.2
			c0.1-0.4,0.2-0.7,0.2-0.9c0-0.3-0.1-0.5-0.3-0.7c-0.2-0.2-0.4-0.2-0.7-0.2c-0.4,0-0.9,0.2-1.3,0.5
			C241.2,11.2,240.9,11.6,240.6,12.2z"/>
		<path class="st19" d="M248.9,11.3c1.2-1,2.1-1.5,2.9-1.5c0.4,0,0.7,0.1,0.9,0.3c0.2,0.2,0.3,0.5,0.3,0.9c0,0.3-0.1,0.8-0.3,1.4
			l-1.1,2.9c-0.2,0.4-0.2,0.7-0.2,0.9c0,0.1,0.1,0.2,0.2,0.3c0.1,0.1,0.3,0.1,0.6,0.1l-0.1,0.3h-3.4l0.1-0.3h0.1
			c0.3,0,0.6,0,0.7-0.1c0.2-0.1,0.3-0.2,0.4-0.4c0-0.1,0.1-0.3,0.3-0.7l1-2.8c0.2-0.6,0.3-1.1,0.2-1.4c-0.1-0.3-0.3-0.4-0.7-0.4
			c-0.6,0-1.3,0.3-2.2,1l-1.3,3.6c-0.2,0.5-0.2,0.8-0.2,0.9c0,0.1,0.1,0.3,0.2,0.3c0.1,0.1,0.3,0.1,0.7,0.1l-0.1,0.3h-3.4l0.1-0.3
			h0.2c0.4,0,0.6-0.1,0.8-0.3c0.2-0.2,0.4-0.5,0.6-1l0.9-2.5c0.3-0.8,0.5-1.3,0.5-1.5c0-0.2,0-0.3,0-0.4c-0.1-0.1-0.1-0.1-0.3-0.1
			c-0.1,0-0.3,0-0.5,0.1l0-0.3l2.4-0.8h0.3L248.9,11.3z"/>
		<path class="st19" d="M258.2,7.8l-0.8,2.3h1.6l-0.2,0.5h-1.6l-1.6,4.5c-0.2,0.4-0.2,0.7-0.1,0.9c0.1,0.2,0.2,0.2,0.4,0.2
			c0.2,0,0.3-0.1,0.5-0.2c0.2-0.1,0.4-0.3,0.5-0.5h0.3c-0.4,0.5-0.7,0.9-1.2,1.1c-0.4,0.2-0.8,0.4-1.1,0.4c-0.2,0-0.4-0.1-0.6-0.2
			c-0.2-0.1-0.3-0.3-0.3-0.5c0-0.2,0.1-0.6,0.2-1.1l1.7-4.6h-1.1l0.1-0.2c0.3-0.1,0.7-0.3,1.1-0.6c0.4-0.3,0.8-0.6,1.1-0.9
			c0.2-0.2,0.5-0.5,0.9-1H258.2z"/>
		<path class="st19" d="M264.8,14.3c-0.5,0.9-1.1,1.6-1.9,2.1c-0.7,0.5-1.4,0.7-2.1,0.7c-0.8,0-1.4-0.3-1.7-1
			c-0.3-0.7-0.3-1.5,0.1-2.7c0.4-1.1,1-2,1.9-2.6c0.9-0.7,1.8-1,2.7-1c0.7,0,1.2,0.2,1.5,0.5c0.3,0.4,0.4,0.7,0.3,1.1
			c-0.1,0.2-0.2,0.3-0.4,0.5c-0.2,0.1-0.4,0.2-0.6,0.2c-0.3,0-0.5-0.1-0.6-0.3c0-0.1,0-0.3,0-0.6c0.1-0.3,0.1-0.5-0.1-0.7
			c-0.1-0.1-0.3-0.2-0.7-0.2c-0.5,0-1,0.2-1.4,0.6c-0.6,0.5-1,1.1-1.3,1.9c-0.3,0.8-0.4,1.5-0.2,2.2c0.2,0.6,0.6,0.9,1.3,0.9
			c0.5,0,1-0.2,1.5-0.5c0.4-0.2,0.8-0.6,1.3-1.3L264.8,14.3z"/>
		<path class="st19" d="M269.4,15.9c-0.9,0.5-1.5,0.9-1.7,0.9c-0.3,0.1-0.6,0.2-0.9,0.2c-0.5,0-0.8-0.2-1-0.5
			c-0.2-0.3-0.2-0.8,0-1.3c0.1-0.3,0.3-0.6,0.5-0.9c0.3-0.3,0.8-0.7,1.4-1c0.6-0.3,1.6-0.7,3-1.1l0.1-0.3c0.2-0.7,0.3-1.2,0.2-1.4
			c-0.1-0.3-0.4-0.4-0.8-0.4c-0.3,0-0.6,0.1-0.9,0.3c-0.3,0.2-0.4,0.4-0.5,0.6l-0.1,0.4c-0.1,0.2-0.2,0.4-0.4,0.5
			c-0.2,0.1-0.3,0.2-0.5,0.2c-0.2,0-0.3-0.1-0.4-0.2c-0.1-0.1-0.1-0.3,0-0.5c0.2-0.4,0.5-0.8,1.1-1.2c0.6-0.4,1.3-0.5,2.1-0.5
			c0.6,0,1.1,0.1,1.4,0.3c0.2,0.2,0.4,0.4,0.4,0.7c0,0.2-0.1,0.7-0.3,1.3l-0.8,2.3c-0.2,0.7-0.4,1.1-0.4,1.2c0,0.1,0,0.2,0,0.3
			c0,0.1,0.1,0.1,0.2,0.1c0.1,0,0.2,0,0.2-0.1c0.1-0.1,0.4-0.2,0.8-0.5l-0.2,0.4c-0.8,0.7-1.5,1.1-2,1.1c-0.2,0-0.4-0.1-0.5-0.3
			C269.2,16.6,269.2,16.4,269.4,15.9z M269.6,15.5l1-2.6c-0.9,0.3-1.4,0.5-1.7,0.6c-0.5,0.2-0.8,0.4-1.1,0.7
			c-0.3,0.2-0.4,0.5-0.5,0.8c-0.1,0.4-0.1,0.7,0,0.9c0.1,0.2,0.3,0.4,0.6,0.4C268.2,16.2,268.8,16,269.6,15.5z"/>
		<path class="st19" d="M277.4,9.9l-0.6,1.5c1-1,1.7-1.5,2.4-1.5c0.3,0,0.5,0.1,0.6,0.3c0.1,0.2,0.1,0.4,0.1,0.6
			c-0.1,0.2-0.2,0.4-0.4,0.5c-0.2,0.1-0.4,0.2-0.5,0.2c-0.2,0-0.3-0.1-0.5-0.3c-0.2-0.2-0.3-0.3-0.4-0.3c-0.1,0-0.2,0-0.4,0.1
			c-0.3,0.2-0.7,0.5-1.1,1l-1.2,3.3c-0.1,0.4-0.2,0.7-0.2,0.9c0,0.1,0.1,0.2,0.2,0.3c0.1,0.1,0.4,0.1,0.7,0.1l-0.1,0.3h-3.6l0.1-0.3
			c0.4,0,0.6-0.1,0.8-0.2c0.2-0.1,0.3-0.2,0.4-0.4c0.1-0.1,0.2-0.3,0.3-0.7l1-2.7c0.3-0.8,0.4-1.3,0.5-1.4c0-0.2,0-0.3-0.1-0.3
			c-0.1-0.1-0.2-0.1-0.3-0.1c-0.2,0-0.3,0-0.6,0.1l0-0.3l2.4-0.8H277.4z"/>
	</g>
</g>
</svg>
