<?xml version="1.0" encoding="UTF-8"?>
<svg width="48px" height="44px" viewBox="0 0 48 44" version="1.1" xmlns="http://www.w3.org/2000/svg" xmlns:xlink="http://www.w3.org/1999/xlink">
    <!-- Generator: Sketch 60 (88103) - https://sketch.com -->
    <title>Icon-03</title>
    <desc>Created with Sketch.</desc>
    <g id="Page-1" stroke="none" stroke-width="1" fill="none" fill-rule="evenodd">
        <g id="iPhone-8-Plus" transform="translate(-147.000000, -327.000000)">
            <g id="Icon-03" transform="translate(147.000000, 325.000000)">
                <rect id="Rectangle" fill-opacity="0" fill="#D8D8D8" x="0" y="0" width="48" height="48"></rect>
                <g id="113" transform="translate(0.000000, 2.000000)" fill="#FFFFFF" fill-rule="nonzero">
                    <path d="M20.5728,0.431466667 C14.4245333,0.431466667 9.42346667,5.43413333 9.42346667,11.5813333 C9.42346667,17.7290667 14.4245333,22.7312 20.5728,22.7312 C26.7210667,22.7312 31.7221333,17.7290667 31.7221333,11.5813333 C31.7221333,5.4336 26.7210667,0.431466667 20.5728,0.431466667 Z M20.5728,21.0026667 C15.3781333,21.0026667 11.1514667,16.776 11.1514667,11.5813333 C11.1514667,6.38666667 15.3781333,2.16053333 20.5728,2.16053333 C25.7669333,2.16053333 29.9936,6.38666667 29.9936,11.5813333 C29.9936,16.776 25.7669333,21.0026667 20.5728,21.0026667 Z" id="Shape"></path>
                    <path d="M20.5728,26.7162667 C3.696,26.7162667 0,35.1114667 0,38.3456 C0,41.4469333 2.55733333,43.3018667 5.0304,43.3018667 L36.1146667,43.3018667 C38.5872,43.3018667 41.1450667,41.4469333 41.1450667,38.3456 C41.1445333,35.1114667 37.4496,26.7162667 20.5728,26.7162667 Z M36.1146667,41.5728 L5.0304,41.5728 C3.42933333,41.5728 1.72853333,40.4421333 1.72853333,38.3456 C1.72853333,35.7770667 5.1904,28.4448 20.5728,28.4448 C35.9546667,28.4448 39.4165333,35.7770667 39.4165333,38.3456 C39.416,40.4421333 37.7152,41.5728 36.1146667,41.5728 Z" id="Shape"></path>
                    <path d="M47.136,16.4314667 L42.0074667,16.4314667 L42.0074667,11.3034667 C42.0074667,10.8256 41.6208,10.4389333 41.1429333,10.4389333 C40.6650667,10.4389333 40.2789333,10.8256 40.2789333,11.3034667 L40.2789333,16.4314667 L35.1509333,16.4314667 C34.6730667,16.4314667 34.2869333,16.8181333 34.2869333,17.2954667 C34.2869333,17.7728 34.6736,18.16 35.1509333,18.16 L40.2789333,18.16 L40.2789333,23.2874667 C40.2789333,23.7653333 40.6656,24.152 41.1429333,24.152 C41.6208,24.152 42.0074667,23.7648 42.0074667,23.2874667 L42.0074667,18.16 L47.136,18.16 C47.6138667,18.16 48,17.7728 48,17.2954667 C48,16.8181333 47.6133333,16.4314667 47.136,16.4314667 Z" id="Shape"></path>
                </g>
            </g>
        </g>
    </g>
</svg>