<?xml version="1.0" encoding="UTF-8"?>
<svg width="48px" height="48px" viewBox="0 0 48 48" version="1.1" xmlns="http://www.w3.org/2000/svg" xmlns:xlink="http://www.w3.org/1999/xlink">
    <!-- Generator: Sketch 60 (88103) - https://sketch.com -->
    <title>Icon-01</title>
    <desc>Created with Sketch.</desc>
    <g id="Page-1" stroke="none" stroke-width="1" fill="none" fill-rule="evenodd">
        <g id="iPhone-8-Plus" transform="translate(-93.000000, -99.000000)" fill="#FFFFFF" fill-rule="nonzero">
            <g id="Icon-01" transform="translate(93.000000, 99.000000)">
                <path d="M31.9312,47.9989333 L31.9312,47.9989333 C34.1530667,47.9968 36.2453333,47.1322667 37.824,45.5621333 C43.4224,39.9653333 39.2794667,35.6192 37.2874667,33.5301333 C35.5029333,31.6613333 32.9834667,30.4042667 31.7488,30.4032 C30.1690667,30.4032 29.1216,31.0992 28.1973333,31.7125333 C27.448,32.2101333 26.856,32.6032 26.0768,32.6032 C24.6416,32.6032 22.5461333,31.2042667 19.6704,28.3269333 C14.2341333,22.8912 15.1397333,21.5269333 16.2858667,19.8 C16.8992,18.8757333 17.5941333,17.8282667 17.5941333,16.2485333 C17.5941333,15.0138667 16.3376,12.4938667 14.4672,10.7114667 C12.6309333,8.96 10.5888,7.33866667 8.10293333,7.33866667 C6.1968,7.33866667 4.34293333,8.26613333 2.4336,10.1754667 C0.864533333,11.752 0,13.8448 0,16.0682667 C0,26.2133333 21.7856,47.9978667 31.9312,47.9989333 Z M3.63573333,11.3754667 C5.20906667,9.80213333 6.6704,9.03733333 8.10293333,9.03733333 C10.0853333,9.03733333 11.8224,10.536 13.2949333,11.9408 C15.0954667,13.6576 15.8954667,15.7450667 15.8954667,16.2490667 C15.8954667,17.3162667 15.4202667,18.0325333 14.8698667,18.8613333 C13.2197333,21.3498667 12.5109333,23.5712 18.4688,29.5290667 C21.7690667,32.8293333 24.1152,34.3008 26.0768,34.3008 C27.368,34.3008 28.3077333,33.6773333 29.136,33.128 C29.9653333,32.5770667 30.6810667,32.1024 31.7472,32.1024 C32.2506667,32.1024 34.3386667,32.9034667 36.0581333,34.704 C38.688,37.4618667 40.7098667,40.2746667 36.6234667,44.36 C35.3674667,45.6106667 33.7008,46.2992 31.9306667,46.3002667 C27.7349333,46.3002667 20.4416,41.7088 13.352,34.6032 C6.27306667,27.5082667 1.6992,20.2330667 1.69866667,16.0682667 C1.6992,14.2970667 2.3872,12.6298667 3.63573333,11.3754667 Z" id="Shape"></path>
                <path d="M17.288,5.50133333 C24.3552,-0.0506666667 34.6378667,0.5136 41.0597333,6.93653333 C47.504,13.3808 48.0533333,23.6842667 42.4592,30.7562667 C42.1674667,31.1237333 42.2032,31.6586667 42.5573333,31.9674667 C42.9104,32.2752 43.4490667,32.2394667 43.7413333,31.8730667 C49.9184,24.1285333 49.3338667,12.8085333 42.2618667,5.736 C35.2117333,-1.3136 23.9146667,-1.91466667 16.176,4.216 C15.8085333,4.5072 15.7701333,5.04533333 16.0773333,5.4 C16.3845333,5.75466667 16.9194667,5.79146667 17.288,5.50133333 Z" id="Shape"></path>
                <path d="M35.8858667,25.2741333 C36.2608,25.5557333 36.7968,25.4821333 37.0474667,25.0858667 C38.0768,23.4549333 38.616,21.5861333 38.616,19.6314667 C38.616,19.2085333 38.5898667,18.7824 38.5386667,18.3669333 C37.9077333,13.2437333 33.5344,9.3808 28.3653333,9.3808 C26.4229333,9.3808 24.5648,9.91466667 22.9408,10.9322667 C22.5429333,11.1813333 22.4677333,11.7168 22.7482667,12.0922667 C23.0288,12.4682667 23.5589333,12.5413333 23.9605333,12.2992 C25.2864,11.4992 26.7925333,11.0794667 28.3653333,11.0789333 C32.6784,11.0789333 36.3269333,14.3013333 36.8522667,18.5749333 C36.8954667,18.9221333 36.9173333,19.2773333 36.9173333,19.6309333 C36.9173333,21.2138667 36.4933333,22.7290667 35.6837333,24.0602667 C35.44,24.4613333 35.5114667,24.992 35.8858667,25.2741333 Z" id="Shape"></path>
            </g>
        </g>
    </g>
</svg>