<?xml version="1.0" encoding="UTF-8"?>
<svg width="38px" height="48px" viewBox="0 0 38 48" version="1.1" xmlns="http://www.w3.org/2000/svg" xmlns:xlink="http://www.w3.org/1999/xlink">
    <!-- Generator: Sketch 60 (88103) - https://sketch.com -->
    <title>Icon-02</title>
    <desc>Created with Sketch.</desc>
    <g id="Page-1" stroke="none" stroke-width="1" fill="none" fill-rule="evenodd">
        <g id="iPhone-8-Plus" transform="translate(-174.000000, -311.000000)">
            <g id="Icon-02" transform="translate(169.000000, 311.000000)">
                <rect id="Rectangle" x="0" y="0" width="48" height="48"></rect>
                <g id="Group-2" transform="translate(5.000000, 0.000000)" fill="#FFFFFF" fill-rule="nonzero">
                    <path d="M14.9968,12.6816 C14.6298667,12.3893333 14.0965333,12.448 13.8037333,12.8144 L10.1536,17.3770667 C10.0746667,17.4768 9.99146667,17.5424 9.92,17.5338667 C9.856,17.5306667 9.77226667,17.464 9.70186667,17.3584 L8.45706667,15.4901333 C8.19733333,15.1002667 7.66933333,14.9941333 7.28,15.2544 C6.8896,15.5141333 6.784,16.0416 7.04426667,16.432 L8.2896,18.3002667 C8.66613333,18.8645333 9.23306667,19.2032 9.84693333,19.2298667 C9.8736,19.2314667 9.8992,19.2314667 9.9248,19.2314667 C10.5098667,19.2314667 11.0725333,18.9456 11.4789333,18.4378667 L15.1290667,13.8757333 C15.4218667,13.5088 15.3626667,12.9754667 14.9968,12.6816 Z" id="Shape"></path>
                    <path d="M28.2949333,15.6917333 L18.4176,15.6917333 C17.9482667,15.6917333 17.568,16.072 17.568,16.5402667 C17.568,17.0096 17.9482667,17.3893333 18.4176,17.3893333 L28.2949333,17.3893333 C28.7642667,17.3893333 29.1445333,17.0096 29.1445333,16.5402667 C29.1445333,16.072 28.7642667,15.6917333 28.2949333,15.6917333 Z" id="Shape"></path>
                    <path d="M14.9968,22.7141333 C14.6298667,22.4213333 14.0965333,22.4805333 13.8037333,22.8464 L10.1536,27.4096 C10.0746667,27.5093333 9.9808,27.5674667 9.92,27.5653333 C9.856,27.5621333 9.77226667,27.4949333 9.70186667,27.3898667 L8.45706667,25.5226667 C8.19626667,25.1317333 7.66933333,25.0272 7.28,25.2864 C6.8896,25.5466667 6.784,26.0736 7.0448,26.4645333 L8.2896,28.3312 C8.66613333,28.896 9.2336,29.2357333 9.84693333,29.2613333 C9.8736,29.2629333 9.8992,29.264 9.9248,29.264 C10.5104,29.264 11.0730667,28.9776 11.4789333,28.4698667 L15.1290667,23.9082667 C15.4218667,23.5408 15.3626667,23.0069333 14.9968,22.7141333 Z" id="Shape"></path>
                    <path d="M28.2949333,25.7232 L18.4176,25.7232 C17.9482667,25.7232 17.568,26.1029333 17.568,26.5722667 C17.568,27.0416 17.9482667,27.4213333 18.4176,27.4213333 L28.2949333,27.4213333 C28.7642667,27.4213333 29.1445333,27.0416 29.1445333,26.5722667 C29.1445333,26.1029333 28.7642667,25.7232 28.2949333,25.7232 Z" id="Shape"></path>
                    <path d="M28.2949333,35.7552 L18.4176,35.7552 C17.9482667,35.7552 17.568,36.1354667 17.568,36.6048 C17.568,37.0741333 17.9482667,37.4538667 18.4176,37.4538667 L28.2949333,37.4538667 C28.7642667,37.4538667 29.1445333,37.0741333 29.1445333,36.6048 C29.1445333,36.1354667 28.7642667,35.7552 28.2949333,35.7552 Z" id="Shape"></path>
                    <path d="M29.9893333,3.85813333 C29.9477333,1.72426667 28.2010667,7.10542736e-15 26.0576,7.10542736e-15 L11.6522667,7.10542736e-15 C9.50773333,7.10542736e-15 7.76213333,1.72426667 7.72053333,3.85813333 L5.9936,3.85813333 C2.68853333,3.85813333 7.10542736e-15,6.5472 7.10542736e-15,9.85226667 L7.10542736e-15,42.0058667 C-0.000533333333,45.3109333 2.68853333,48 5.9936,48 L31.7162667,48 C35.0213333,48 37.7098667,45.3109333 37.7098667,42.0064 L37.7098667,9.8528 C37.7098667,6.54773333 35.0213333,3.85866667 31.7162667,3.85866667 L29.9893333,3.85866667 L29.9893333,3.85813333 Z M9.41493333,3.936 C9.41493333,2.7024 10.4186667,1.69813333 11.6522667,1.69813333 L26.0576,1.69813333 C27.2912,1.69813333 28.2949333,2.7024 28.2949333,3.936 L28.2949333,5.47946667 C28.2949333,6.71306667 27.2912,7.71733333 26.0576,7.71733333 L11.6522667,7.71733333 C10.4186667,7.71733333 9.41493333,6.71306667 9.41493333,5.47946667 L9.41493333,3.936 Z M36.0122667,9.8528 L36.0122667,42.0064 C36.0122667,44.3749333 34.0858667,46.3024 31.7162667,46.3024 L5.9936,46.3024 C3.62506667,46.3024 1.6976,44.3754667 1.6976,42.0064 L1.6976,9.8528 C1.6976,7.48426667 3.62453333,5.5568 5.9936,5.5568 L7.72053333,5.5568 C7.76213333,7.69066667 9.50826667,9.41493333 11.6522667,9.41493333 L26.0576,9.41493333 C28.2016,9.41493333 29.9477333,7.69066667 29.9893333,5.5568 L31.7162667,5.5568 C34.0858667,5.5568 36.0122667,7.48373333 36.0122667,9.8528 Z" id="Shape"></path>
                </g>
            </g>
        </g>
    </g>
</svg>