<?xml version="1.0" encoding="UTF-8"?>
<svg width="56px" height="56px" viewBox="0 0 56 56" version="1.1" xmlns="http://www.w3.org/2000/svg" xmlns:xlink="http://www.w3.org/1999/xlink">
    <!-- Generator: Sketch 60 (88103) - https://sketch.com -->
    <title>Line</title>
    <desc>Created with Sketch.</desc>
    <g id="Page-1" stroke="none" stroke-width="1" fill="none" fill-rule="evenodd">
        <g id="iPhone-SE" transform="translate(-189.000000, -247.000000)">
            <g id="Line" transform="translate(189.000000, 247.000000)">
                <circle id="Oval" stroke="#00B900" stroke-width="2" cx="28" cy="28" r="27"></circle>
                <g transform="translate(11.000000, 13.000000)" fill-rule="nonzero">
                    <path d="M17.4998323,0 C7.85117276,0 0,6.30412379 0,14.0529841 C0,20.9998031 6.22578572,26.8175897 14.635528,27.9177407 C15.2055038,28.039242 15.981127,28.2895479 16.1773812,28.7715693 C16.3538421,29.2094387 16.2927853,29.8952902 16.2337413,30.3374752 C16.2337413,30.3374752 16.0284293,31.5594594 15.9841463,31.8197244 C15.907993,32.2575938 15.6325662,33.5320293 17.4998323,32.7532261 C19.3677692,31.9744228 27.5782381,26.8809962 31.2497004,22.6991612 C33.7852371,19.947124 35,17.1542544 35,14.0529841 C35,6.30412379 27.1498337,0 17.4998323,0 Z" id="Fill-1" fill="#00B900"></path>
                    <path d="M12.3573436,11 C12.1602249,11 12,11.1470232 12,11.3276516 L12,18.6723484 C12,18.8532999 12.1602249,19 12.3573436,19 L13.6430077,19 C13.8401265,19 14,18.8532999 14,18.6723484 L14,11.3276516 C14,11.1470232 13.8401265,11 13.6430077,11 L12.3573436,11 Z" id="Fill-2" fill="#FFFFFF"></path>
                    <path d="M21.671167,11 L20.4869151,11 C20.3053449,11 20.1580821,11.1470232 20.1580821,11.3276516 L20.1580821,15.6911705 L16.7868966,11.1457307 C16.7791289,11.134098 16.7703902,11.1231117 16.7613279,11.1124485 L16.7590623,11.1105098 C16.7525892,11.1030778 16.7461161,11.0966152 16.7393194,11.0901527 C16.7373775,11.0882139 16.7354355,11.0865983 16.73317,11.0846595 C16.7276678,11.0794894 16.7218421,11.0746426 16.7156927,11.0701188 C16.7131034,11.0675337 16.7101905,11.0655949 16.7072776,11.0633331 C16.7014519,11.0594556 16.6959497,11.0552548 16.6901239,11.0517004 C16.6868874,11.0494386 16.6836508,11.0474998 16.6800907,11.0458842 C16.6742648,11.0423298 16.6684391,11.0387754 16.6626133,11.0358672 C16.6590531,11.0342516 16.6558166,11.0323128 16.6522564,11.0310203 C16.6461069,11.0281121 16.6399575,11.025204 16.6334844,11.022942 C16.6296005,11.0216496 16.626364,11.0203571 16.6228038,11.0190645 C16.6163307,11.0168027 16.6098576,11.0145407 16.6030608,11.0129252 C16.5995006,11.0116326 16.5956167,11.0109863 16.591733,11.0096939 C16.5852598,11.0084013 16.5791104,11.0067857 16.572961,11.0054932 C16.5684298,11.0048469 16.563575,11.0042006 16.5590439,11.0038775 C16.553218,11.0025851 16.5473923,11.0022619 16.5415665,11.0016156 C16.5360643,11.0009694 16.5305622,11.0009694 16.5247364,11.0006462 C16.520529,11.0006462 16.5172924,11 16.5130849,11 L15.3291566,11 C15.1475864,11 15,11.1470232 15,11.3276516 L15,18.6723484 C15,18.8532999 15.1475864,19 15.3291566,19 L16.5130849,19 C16.6949788,19 16.8422415,18.8532999 16.8422415,18.6723484 L16.8422415,14.310122 L20.2176345,18.8613781 C20.2409377,18.8943372 20.2697429,18.9211568 20.3011375,18.9424832 C20.3021084,18.9431295 20.303403,18.9440988 20.304374,18.9450683 C20.3111707,18.9492689 20.3179675,18.9534696 20.3247642,18.9573471 C20.3280007,18.9592859 20.3309136,18.9605784 20.3341501,18.962194 C20.339005,18.9651022 20.3445071,18.9676872 20.3496856,18.9699491 C20.3551877,18.972211 20.3600425,18.9744729 20.3658683,18.9767348 C20.3691048,18.9780273 20.3723415,18.9793198 20.375578,18.9802892 C20.3833456,18.9831973 20.390466,18.9854593 20.3979101,18.9877212 C20.3995284,18.9877212 20.4011466,18.9883674 20.4027649,18.9886905 C20.4296282,18.9957994 20.4577862,19 20.4869151,19 L21.671167,19 C21.8530608,19 22,18.8532999 22,18.6723484 L22,11.3276516 C22,11.1470232 21.8530608,11 21.671167,11" id="Fill-3" fill="#FFFFFF"></path>
                    <path d="M11.6345287,17.1608304 L8.0511804,17.1608304 L8.0511804,11.3282846 C8.0511804,11.1470172 7.8871869,11 7.6853487,11 L6.3661921,11 C6.1639935,11 6,11.1470172 6,11.3282846 L6,18.6713922 L6,18.6720385 C6,18.7602488 6.0392864,18.8400581 6.1023608,18.8988651 C6.1038025,18.9004806 6.1052442,18.9020962 6.1074067,18.9037118 C6.1092089,18.9053274 6.111011,18.9066198 6.1128131,18.9082354 C6.1787709,18.9651036 6.2674356,19 6.3658317,19 L11.6345287,19 C11.8367273,19 12,18.8526596 12,18.6713922 L12,17.4891151 C12,17.3078476 11.8367273,17.1608304 11.6345287,17.1608304" id="Fill-4" fill="#FFFFFF"></path>
                    <path d="M28.6345287,12.8391696 C28.8367273,12.8391696 29,12.6924755 29,12.5108849 L29,11.3286078 C29,11.1473404 28.8367273,11 28.6345287,11 L23.3661921,11 L23.3654713,11 C23.2667147,11 23.1776897,11.0355427 23.1117318,11.092734 C23.1102901,11.0940264 23.108488,11.0949957 23.1074067,11.0962882 C23.1052442,11.0982269 23.1034421,11.1001656 23.1016399,11.1021043 C23.0389259,11.1609112 23,11.2403974 23,11.3282846 L23,11.3286078 L23,18.6717154 L23,18.6720385 C23,18.7602488 23.0392864,18.8400581 23.1023608,18.8988651 C23.1038025,18.9004806 23.1056046,18.9024193 23.1074067,18.9037118 C23.1088484,18.9053274 23.111011,18.9069429 23.1128131,18.9082354 C23.1784105,18.9647804 23.2674356,19 23.3654713,19 L28.6345287,19 C28.8367273,19 29,18.8526596 29,18.6717154 L29,17.4891151 C29,17.3081708 28.8367273,17.1608304 28.6345287,17.1608304 L25.0515408,17.1608304 L25.0515408,15.9194232 L28.6345287,15.9194232 C28.8367273,15.9194232 29,15.772406 29,15.5911386 L29,14.4088614 C29,14.227594 28.8367273,14.0802537 28.6345287,14.0802537 L25.0515408,14.0802537 L25.0515408,12.8391696 L28.6345287,12.8391696 Z" id="Fill-5" fill="#FFFFFF"></path>
                </g>
            </g>
        </g>
    </g>
</svg>