<?xml version="1.0" encoding="UTF-8"?>
<svg width="153px" height="12px" viewBox="0 0 153 12" version="1.1" xmlns="http://www.w3.org/2000/svg" xmlns:xlink="http://www.w3.org/1999/xlink">
    <!-- Generator: Sketch 60 (88103) - https://sketch.com -->
    <title>phone</title>
    <desc>Created with Sketch.</desc>
    <g id="Page-1" stroke="none" stroke-width="1" fill="none" fill-rule="evenodd">
        <g id="iPhone-SE" transform="translate(-23.000000, -354.000000)">
            <g id="phone" transform="translate(24.000000, 353.000000)">
                <polygon id="Fill-1" fill="#E50113" points="0.164 12.7385 78.928 12.7385 78.928 1.1635 0.164 1.1635"></polygon>
                <g id="Group-26" transform="translate(0.000000, 0.902500)">
                    <polygon id="Stroke-2" stroke="#E50113" stroke-width="0.327" points="0.163 11.837 78.928 11.837 78.928 0.261 0.163 0.261"></polygon>
                    <polygon id="Stroke-4" stroke="#E50113" stroke-width="0.327" points="78.929 11.837 151.7 11.837 151.7 0.261 78.929 0.261"></polygon>
                    <path d="M83.9456,6.2819 C83.9456,7.0639 84.0786,7.7499 84.3506,8.3489 C84.6176,8.9459 84.9856,9.2449 85.4516,9.2449 C85.9196,9.2449 86.2836,8.9659 86.5476,8.4099 C86.8006,7.8479 86.9286,7.1439 86.9286,6.2819 C86.9286,5.4969 86.7976,4.8069 86.5206,4.2199 C86.2526,3.6329 85.8896,3.3379 85.4346,3.3379 C84.9836,3.3379 84.6176,3.6439 84.3506,4.2539 C84.0786,4.8719 83.9456,5.5489 83.9456,6.2819 M88.1996,6.2929 C88.1996,7.4159 87.9526,8.3699 87.4666,9.1629 C86.9706,9.9539 86.2976,10.3519 85.4346,10.3519 C84.5766,10.3519 83.9026,9.9519 83.4076,9.1569 C82.9156,8.3609 82.6716,7.4069 82.6716,6.2999 C82.6716,5.1459 82.9176,4.1819 83.4166,3.3999 C83.9106,2.6229 84.5846,2.2319 85.4436,2.2319 C86.2996,2.2319 86.9706,2.6249 87.4666,3.4199 C87.9526,4.2069 88.1996,5.1729 88.1996,6.2929" id="Fill-5" fill="#E50113"></path>
                    <path d="M90.2561,4.4269 C90.2561,4.7809 90.3601,5.0649 90.5741,5.2809 C90.7851,5.5009 91.0421,5.6109 91.3561,5.6109 C91.6651,5.6109 91.9221,5.5039 92.1281,5.3009 C92.3331,5.0959 92.4381,4.8029 92.4381,4.4269 C92.4381,4.0549 92.3391,3.7519 92.1431,3.5079 C91.9431,3.2669 91.6841,3.1459 91.3591,3.1459 C91.0351,3.1459 90.7791,3.2609 90.5651,3.4789 C90.3591,3.7069 90.2561,4.0219 90.2561,4.4269 M90.1551,7.9269 C90.1551,8.3559 90.2701,8.6909 90.4911,8.9389 C90.7291,9.1799 91.0141,9.3119 91.3751,9.3119 C91.7291,9.3119 92.0081,9.1799 92.2151,8.9199 C92.4281,8.6609 92.5311,8.3259 92.5311,7.9269 C92.5311,7.5689 92.4191,7.2689 92.1981,7.0209 C91.9831,6.7749 91.6941,6.6529 91.3491,6.6529 C91.0351,6.6529 90.7581,6.7799 90.5141,7.0299 C90.2751,7.2769 90.1551,7.5789 90.1551,7.9269 M89.0871,4.4269 C89.0871,3.7789 89.3031,3.2499 89.7321,2.8449 C90.1661,2.4369 90.7051,2.2319 91.3491,2.2319 C91.9941,2.2319 92.5311,2.4369 92.9571,2.8449 C93.3941,3.2499 93.6101,3.7789 93.6101,4.4269 C93.6101,5.2269 93.2681,5.7919 92.5941,6.1309 C93.4201,6.4329 93.8391,7.0859 93.8391,8.0919 C93.8391,8.7689 93.5991,9.3139 93.1051,9.7249 C92.6171,10.1429 92.0321,10.3519 91.3351,10.3519 C90.6381,10.3519 90.0521,10.1429 89.5701,9.7249 C89.0871,9.3049 88.8451,8.7619 88.8451,8.0919 C88.8451,7.1089 89.2621,6.4579 90.0901,6.1309 C89.4211,5.7869 89.0871,5.2129 89.0871,4.4269" id="Fill-6" fill="#E50113"></path>
                    <path d="M95.7522,6.2819 C95.7522,7.0639 95.8912,7.7499 96.1622,8.3489 C96.4312,8.9459 96.8072,9.2449 97.2692,9.2449 C97.7342,9.2449 98.0972,8.9659 98.3502,8.4099 C98.6122,7.8479 98.7412,7.1439 98.7412,6.2819 C98.7412,5.4969 98.6062,4.8069 98.3322,4.2199 C98.0692,3.6329 97.7062,3.3379 97.2482,3.3379 C96.7962,3.3379 96.4312,3.6439 96.1622,4.2539 C95.8912,4.8719 95.7522,5.5489 95.7522,6.2819 M100.0122,6.2929 C100.0122,7.4159 99.7642,8.3699 99.2742,9.1629 C98.7802,9.9539 98.1082,10.3519 97.2482,10.3519 C96.3872,10.3519 95.7152,9.9519 95.2242,9.1569 C94.7302,8.3609 94.4842,7.4069 94.4842,6.2999 C94.4842,5.1459 94.7322,4.1819 95.2262,3.3999 C95.7232,2.6229 96.3982,2.2319 97.2552,2.2319 C98.1122,2.2319 98.7802,2.6249 99.2742,3.4199 C99.7642,4.2069 100.0122,5.1729 100.0122,6.2929" id="Fill-7" fill="#E50113"></path>
                    <path d="M101.6624,6.2819 C101.6624,7.0639 101.7964,7.7499 102.0684,8.3489 C102.3384,8.9459 102.7094,9.2449 103.1734,9.2449 C103.6384,9.2449 104.0074,8.9659 104.2584,8.4099 C104.5224,7.8479 104.6444,7.1439 104.6444,6.2819 C104.6444,5.4969 104.5134,4.8069 104.2354,4.2199 C103.9734,3.6329 103.6124,3.3379 103.1524,3.3379 C102.7024,3.3379 102.3384,3.6439 102.0684,4.2539 C101.7964,4.8719 101.6624,5.5489 101.6624,6.2819 M105.9184,6.2929 C105.9184,7.4159 105.6754,8.3699 105.1804,9.1629 C104.6924,9.9539 104.0134,10.3519 103.1524,10.3519 C102.2934,10.3519 101.6204,9.9519 101.1264,9.1569 C100.6354,8.3609 100.3874,7.4069 100.3874,6.2999 C100.3874,5.1459 100.6354,4.1819 101.1354,3.3999 C101.6314,2.6229 102.3054,2.2319 103.1604,2.2319 C104.0134,2.2319 104.6924,2.6249 105.1804,3.4199 C105.6754,4.2069 105.9184,5.1729 105.9184,6.2929" id="Fill-8" fill="#E50113"></path>
                    <polygon id="Fill-9" fill="#E50113" points="106.551 7.45 109.035 7.45 109.035 6.281 106.551 6.281"></polygon>
                    <path d="M110.9446,6.2819 C110.9446,7.0639 111.0846,7.7499 111.3546,8.3489 C111.6236,8.9459 111.9886,9.2449 112.4626,9.2449 C112.9236,9.2449 113.2846,8.9659 113.5426,8.4099 C113.8016,7.8479 113.9306,7.1439 113.9306,6.2819 C113.9306,5.4969 113.7966,4.8069 113.5246,4.2199 C113.2546,3.6329 112.8976,3.3379 112.4406,3.3379 C111.9846,3.3379 111.6236,3.6439 111.3546,4.2539 C111.0846,4.8719 110.9446,5.5489 110.9446,6.2819 M115.2016,6.2929 C115.2016,7.4159 114.9566,8.3699 114.4676,9.1629 C113.9736,9.9539 113.2976,10.3519 112.4406,10.3519 C111.5776,10.3519 110.9036,9.9519 110.4126,9.1569 C109.9176,8.3609 109.6756,7.4069 109.6756,6.2999 C109.6756,5.1459 109.9176,4.1819 110.4176,3.3999 C110.9156,2.6229 111.5906,2.2319 112.4456,2.2319 C113.2986,2.2319 113.9736,2.6249 114.4676,3.4199 C114.9566,4.2069 115.2016,5.1729 115.2016,6.2929" id="Fill-10" fill="#E50113"></path>
                    <path d="M120.8655,9.0378 L120.8655,10.1498 L115.6785,10.1498 L117.6375,7.6708 C118.5675,6.5198 119.1145,5.7968 119.2865,5.5038 C119.4455,5.2088 119.5285,4.9698 119.5285,4.7868 C119.5375,4.7348 119.5425,4.6798 119.5425,4.6348 C119.5425,4.2958 119.4255,3.9888 119.2065,3.7338 C118.9805,3.4698 118.6845,3.3378 118.3215,3.3378 C117.9555,3.3378 117.6745,3.4788 117.4645,3.7828 C117.2615,4.0718 117.1515,4.4398 117.1515,4.8608 L115.7815,4.8608 C115.7815,4.1008 116.0065,3.4698 116.4615,2.9778 C116.9155,2.4808 117.5325,2.2318 118.3095,2.2318 C119.0115,2.2318 119.6085,2.4738 120.0885,2.9398 C120.5695,3.4178 120.8115,4.0068 120.8115,4.7218 C120.8115,5.3898 120.3005,6.3268 119.2765,7.5208 L117.9645,9.0378 L120.8655,9.0378 Z" id="Fill-11" fill="#E50113"></path>
                    <path d="M124.8274,4.1183 L122.8474,7.6753 L124.8274,7.6753 L124.8274,4.1183 Z M126.9464,7.6753 L126.9464,8.6793 L126.0344,8.6793 L126.0344,10.1383 L124.8274,10.1383 L124.8274,8.6793 L121.3214,8.6793 L121.3214,8.1063 L124.7614,2.2903 L126.0344,2.2903 L126.0344,7.6753 L126.9464,7.6753 Z" id="Fill-12" fill="#E50113"></path>
                    <polygon id="Fill-13" fill="#E50113" points="127.65 7.45 130.137 7.45 130.137 6.281 127.65 6.281"></polygon>
                    <path d="M133.2269,3.5343 L132.9229,4.9183 L133.5159,4.8903 C134.2509,4.8903 134.8549,5.1533 135.3189,5.6753 C135.7779,6.1953 136.0079,6.8263 136.0079,7.5723 C136.0079,8.4063 135.7469,9.0723 135.2339,9.5793 C134.7139,10.0913 134.0429,10.3413 133.1979,10.3413 C132.2679,10.3413 131.5079,10.0033 130.9109,9.3263 L131.2949,8.2113 C131.7819,8.8973 132.3859,9.2413 133.1029,9.2413 C133.5389,9.2413 133.9139,9.0843 134.2219,8.7803 C134.5299,8.4663 134.6869,8.0433 134.6869,7.5223 C134.6869,6.9893 134.5259,6.5783 134.2019,6.2763 C133.8799,5.9803 133.4739,5.8323 132.9839,5.8323 C132.4899,5.8323 132.0899,6.0043 131.7769,6.3433 L131.5319,6.3433 L132.3339,2.4283 L135.6919,2.4283 L135.6919,3.5343 L133.2269,3.5343 Z" id="Fill-14" fill="#E50113"></path>
                    <path d="M139.1292,3.5343 L138.8282,4.9183 L139.4212,4.8903 C140.1592,4.8903 140.7562,5.1533 141.2222,5.6753 C141.6802,6.1953 141.9142,6.8263 141.9142,7.5723 C141.9142,8.4063 141.6572,9.0723 141.1402,9.5793 C140.6232,10.0913 139.9442,10.3413 139.1022,10.3413 C138.1732,10.3413 137.4132,10.0033 136.8202,9.3263 L137.1992,8.2113 C137.6922,8.8973 138.2942,9.2413 139.0032,9.2413 C139.4422,9.2413 139.8172,9.0843 140.1292,8.7803 C140.4412,8.4663 140.5902,8.0433 140.5902,7.5223 C140.5902,6.9893 140.4312,6.5783 140.1102,6.2763 C139.7852,5.9803 139.3802,5.8323 138.8912,5.8323 C138.3962,5.8323 137.9972,6.0043 137.6842,6.3433 L137.4402,6.3433 L138.2402,2.4283 L141.5932,2.4283 L141.5932,3.5343 L139.1292,3.5343 Z" id="Fill-15" fill="#E50113"></path>
                    <path d="M143.8548,6.2819 C143.8548,7.0639 143.9918,7.7499 144.2638,8.3489 C144.5318,8.9459 144.9028,9.2449 145.3638,9.2449 C145.8338,9.2449 146.1948,8.9659 146.4518,8.4099 C146.7118,7.8479 146.8398,7.1439 146.8398,6.2819 C146.8398,5.4969 146.7058,4.8069 146.4308,4.2199 C146.1628,3.6329 145.8018,3.3379 145.3468,3.3379 C144.8988,3.3379 144.5318,3.6439 144.2638,4.2539 C143.9918,4.8719 143.8548,5.5489 143.8548,6.2819 M148.1128,6.2929 C148.1128,7.4159 147.8658,8.3699 147.3758,9.1629 C146.8848,9.9539 146.2088,10.3519 145.3468,10.3519 C144.4908,10.3519 143.8128,9.9519 143.3268,9.1569 C142.8308,8.3609 142.5838,7.4069 142.5838,6.2999 C142.5838,5.1459 142.8308,4.1819 143.3268,3.3999 C143.8228,2.6229 144.4958,2.2319 145.3498,2.2319 C146.2088,2.2319 146.8848,2.6249 147.3758,3.4199 C147.8658,4.2069 148.1128,5.1729 148.1128,6.2929" id="Fill-16" fill="#E50113"></path>
                    <path d="M53.032,5.008 L55.058,5.008 L55.058,3.57 L53.032,3.57 L53.032,5.008 Z M53.032,7.071 L55.058,7.071 L55.058,5.622 L53.032,5.622 L53.032,7.071 Z M52.303,9.049 L51.726,9.049 L51.726,9.715 L56.239,9.715 L56.239,9.049 L55.774,9.049 L55.774,2.916 L52.303,2.916 L52.303,9.049 Z M51.924,3.264 C51.986,3.264 52.013,3.251 52.013,3.202 C52.013,3.154 51.991,3.116 51.974,3.078 L51.425,2.577 C50.945,2.795 50.541,2.933 50.202,3.005 C49.837,3.11 49.396,3.179 48.88,3.202 L49.379,3.874 C49.617,3.827 49.853,3.784 50.084,3.734 L50.084,4.955 L48.793,4.955 L48.793,5.611 L49.842,5.611 C49.67,6.16 49.527,6.547 49.396,6.792 C49.174,7.211 48.922,7.607 48.623,7.957 L49.274,8.54 C49.557,8.102 49.774,7.667 49.928,7.269 C49.978,7.134 50.034,6.981 50.084,6.824 L50.084,9.872 L50.816,9.872 L50.816,6.469 C51.029,6.92 51.26,7.314 51.537,7.671 L52.081,7.114 C51.664,6.715 51.299,6.21 51.012,5.611 L52.081,5.611 L52.081,4.955 L50.816,4.955 L50.816,3.522 C51.048,3.454 51.284,3.375 51.513,3.271 C51.591,3.241 51.659,3.226 51.714,3.226 L51.924,3.264 Z M53.032,9.048 L55.058,9.048 L55.058,7.677 L53.032,7.677 L53.032,9.048 Z" id="Fill-17" fill="#FEFEFE"></path>
                    <path d="M62.023,5.712 L63.59,5.712 L63.59,5.071 L62.023,5.071 L62.023,5.712 Z M59.811,5.712 L61.29,5.712 L61.29,5.071 L59.811,5.071 L59.811,5.712 Z M59.811,6.951 L61.29,6.951 L61.29,6.267 L59.811,6.267 L59.811,6.951 Z M58.269,3.917 L61.29,3.917 L61.29,4.461 L59.085,4.461 L59.085,7.553 L61.29,7.553 L61.29,8.172 L57.973,8.172 L57.973,8.823 L61.29,8.823 L61.29,9.929 L62.023,9.929 L62.023,8.823 L65.31,8.823 L65.31,8.172 L62.023,8.172 L62.023,7.553 L64.309,7.553 L64.309,4.461 L62.023,4.461 L62.023,3.917 L64.992,3.917 L64.992,3.256 L62.023,3.256 L62.023,2.813 C62.112,2.746 62.158,2.692 62.158,2.658 C62.158,2.605 62.09,2.569 61.968,2.549 L61.29,2.492 L61.29,3.256 L58.269,3.256 L58.269,3.917 Z M62.023,6.951 L63.59,6.951 L63.59,6.267 L62.023,6.267 L62.023,6.951 Z" id="Fill-18" fill="#FEFEFE"></path>
                    <path d="M67.2991,8.4098 C67.2381,8.6558 67.1551,8.8938 67.0501,9.1058 L67.7021,9.3238 C67.8571,8.8888 67.9961,8.3738 68.0941,7.7758 C68.1831,7.6948 68.2211,7.6238 68.2211,7.5718 C68.2211,7.5288 68.1951,7.5078 68.1301,7.5028 L67.5101,7.3288 C67.4591,7.7158 67.4011,8.0918 67.2991,8.4098 L67.2991,8.4098 Z M70.7981,3.4768 L73.8371,3.4768 L73.8371,4.7808 L73.1801,4.7808 L73.4801,4.1038 C73.5731,4.0488 73.6031,3.9868 73.6031,3.9268 C73.6031,3.8738 73.5731,3.8418 73.4761,3.8268 L72.9551,3.7338 L72.5441,4.7808 L72.0451,4.7808 C71.9351,4.4398 71.7731,4.0948 71.5571,3.7338 L70.9661,3.8588 C71.1421,4.1508 71.2921,4.4438 71.4201,4.7808 L70.7981,4.7808 L70.7981,3.4768 Z M72.6051,6.1838 L73.8371,6.1838 L73.8371,5.3558 L72.6051,5.3558 L72.6051,6.1838 Z M67.7771,3.8008 C67.6981,3.7518 67.6261,3.7108 67.5441,3.6638 L67.1551,4.1738 C67.5281,4.4268 67.9301,4.7218 68.3781,5.0678 L67.6571,6.1248 C67.4881,6.1368 67.3271,6.1418 67.1551,6.1468 L67.3111,6.8048 C67.3181,6.8798 67.3341,6.9198 67.3931,6.9198 C67.4381,6.9198 67.4881,6.8798 67.5441,6.7918 C67.8481,6.7548 68.1161,6.7208 68.3621,6.6838 L68.3621,9.8788 L69.0331,9.8788 L69.0331,6.6028 C69.2061,6.5678 69.3611,6.5468 69.4871,6.5268 C69.5271,6.6698 69.5591,6.8048 69.5991,6.9468 L70.1181,6.8398 L70.1181,8.4478 C70.0501,8.0918 69.9461,7.7128 69.8261,7.3408 L69.1791,7.4578 C69.3311,7.9708 69.4561,8.5308 69.5671,9.1338 L70.1181,9.0238 L70.1181,9.8788 L70.7981,9.8788 L70.7981,6.7918 L71.3601,6.7918 L71.3601,7.9568 C71.3601,8.2168 71.5181,8.3388 71.8481,8.3388 L73.6011,8.3388 L73.6011,7.7758 L72.1711,7.7758 C72.0651,7.7758 72.0091,7.7398 72.0091,7.6708 L72.0091,6.7918 L73.8371,6.7918 L73.8371,8.9868 C73.8371,9.1328 73.7461,9.2108 73.5781,9.2178 L72.9551,9.2318 L73.2171,9.8788 C73.4761,9.8788 73.7351,9.8298 73.9911,9.7628 C74.3201,9.6818 74.4881,9.4908 74.4881,9.1648 L74.4881,2.8708 L70.1181,2.8708 L70.1181,6.3848 C70.0411,6.0868 69.9301,5.7738 69.7971,5.4438 L69.1791,5.5838 C69.2331,5.7008 69.2771,5.8368 69.3261,5.9708 C69.0331,6.0038 68.7411,6.0258 68.4381,6.0578 L69.7651,4.2788 C69.8761,4.2538 69.9251,4.2198 69.9251,4.1738 C69.9251,4.1178 69.8951,4.0718 69.8451,4.0488 L69.3111,3.7018 L68.7601,4.5028 C68.6101,4.3838 68.4471,4.2788 68.2991,4.1598 L69.0771,3.0978 C69.1651,3.0528 69.2101,2.9998 69.2101,2.9348 C69.2101,2.8978 69.1761,2.8708 69.0961,2.8328 L68.5611,2.5488 L67.7771,3.8008 Z M70.7981,6.1838 L71.9481,6.1838 L71.9481,5.3558 L70.7981,5.3558 L70.7981,6.1838 Z" id="Fill-19" fill="#FEFEFE"></path>
                    <path d="M6.5149,4.3249 C5.9459,4.6849 5.2619,5.0249 4.4729,5.3519 L5.1619,5.9469 C5.3949,5.8279 5.6269,5.6999 5.8399,5.5859 L5.8399,6.1959 L7.9659,6.1959 L7.9659,7.2319 L6.0949,7.2319 L6.0949,7.9019 L7.9659,7.9019 L7.9659,8.9869 L4.6989,8.9869 L4.6989,9.6479 L11.9439,9.6479 L11.9439,8.9869 L8.7439,8.9869 L8.7439,7.9019 L10.6979,7.9019 L10.6979,7.2319 L8.7439,7.2319 L8.7439,6.1959 L10.9369,6.1959 L10.9369,5.6109 C11.1359,5.7259 11.3479,5.8559 11.5739,5.9809 L12.1649,5.3169 C11.4169,4.9829 10.8349,4.6549 10.4359,4.3439 C9.8689,3.9269 9.4109,3.4029 9.0329,2.7529 L6.0949,2.7529 L6.0949,3.4539 L7.5529,3.4539 C7.1699,3.8419 6.8239,4.1359 6.5149,4.3249 M7.0209,4.8029 C7.4059,4.5029 7.8429,4.0539 8.3089,3.4539 L8.5419,3.4539 C8.8859,3.9389 9.2619,4.3609 9.6609,4.7219 C9.9449,4.9829 10.3439,5.2609 10.8099,5.5389 L5.9119,5.5389 C6.3579,5.2859 6.7319,5.0479 7.0209,4.8029" id="Fill-20" fill="#FEFEFE"></path>
                    <path d="M15.1946,7.7087 L15.3526,8.3387 C15.3746,8.4147 15.3946,8.4477 15.4426,8.4477 C15.4856,8.4477 15.5416,8.4097 15.5956,8.3157 C16.5166,8.1027 17.1976,7.9337 17.6276,7.8037 L17.6276,7.2697 C16.8396,7.4687 16.0406,7.6147 15.1946,7.7087 L15.1946,7.7087 Z M16.0406,6.4697 L16.9246,6.4697 L16.9246,5.7987 L16.0406,5.7987 L16.0406,6.4697 Z M15.4426,6.9807 L17.5316,6.9807 L17.5316,5.2857 L15.4426,5.2857 L15.4426,6.9807 Z M15.1946,4.8407 L17.9226,4.8407 C17.9656,5.5837 18.0446,6.1717 18.1446,6.6277 C18.2266,6.9257 18.3046,7.2107 18.4176,7.4687 C18.2986,7.5857 18.1906,7.6777 18.0606,7.7737 C17.8026,7.9757 17.4786,8.1647 17.0956,8.3437 L17.5966,8.7267 C18.0266,8.4947 18.4016,8.2587 18.6996,8.0207 C18.7886,8.1527 18.8726,8.2777 18.9686,8.3957 C19.2476,8.7027 19.4716,8.8527 19.6586,8.8527 C19.9016,8.8527 20.1986,8.5197 20.5246,7.8287 L19.9896,7.3927 C19.8336,7.7937 19.7126,7.9997 19.6176,7.9997 C19.5396,7.9997 19.4556,7.9337 19.3446,7.8007 C19.2986,7.7257 19.2326,7.6427 19.1886,7.5457 L19.2116,7.5287 C19.5146,7.1677 19.7956,6.6607 20.0246,5.9957 C20.1186,5.9377 20.1496,5.8747 20.1496,5.8287 C20.1496,5.7937 20.1226,5.7737 20.0596,5.7477 L19.4646,5.5717 C19.3446,6.0507 19.1576,6.4937 18.8906,6.9057 L18.8076,6.6037 C18.6746,6.1107 18.5966,5.5257 18.5526,4.8407 L20.3266,4.8407 L20.3266,4.2787 L19.6956,4.2787 L20.0246,3.9867 C19.8276,3.7557 19.6106,3.5697 19.3886,3.4127 L18.9946,3.7517 C19.1626,3.8877 19.3336,4.0607 19.5016,4.2787 L18.5326,4.2787 L18.5326,3.8877 C18.6196,3.8157 18.6546,3.7517 18.6546,3.7027 C18.6546,3.6507 18.6196,3.6037 18.5396,3.5897 L17.8986,3.4757 L17.9066,4.2787 L15.1946,4.2787 L15.1946,4.8407 Z M14.1716,9.8527 L14.9016,9.8527 L14.9016,9.5957 L20.5906,9.5957 L20.5906,9.8527 L21.3286,9.8527 L21.3286,2.7787 L14.1716,2.7787 L14.1716,9.8527 Z M14.9016,8.9507 L20.5906,8.9507 L20.5906,3.4127 L14.9016,3.4127 L14.9016,8.9507 Z" id="Fill-21" fill="#FEFEFE"></path>
                    <path d="M39.5579,8.5221 C39.9779,8.5221 40.3759,8.8341 40.4419,9.2041 C40.5139,9.5971 40.2269,9.8901 39.7989,9.8901 C39.3679,9.8901 38.9929,9.5951 38.9199,9.2041 C38.8529,8.8411 39.1239,8.5221 39.5579,8.5221" id="Fill-22" fill="#FEFEFE"></path>
                    <path d="M24.1282,9.4704 C24.7132,9.3974 24.9922,9.3264 25.1522,8.6564 L26.2492,3.8654 C25.8642,3.1664 25.7222,3.1284 25.5872,3.1284 L25.6532,2.8824 L27.6652,2.8824 L30.0092,7.2044 L30.0242,7.2044 L30.7202,4.1354 C30.8642,3.5224 30.8162,3.1994 30.0642,3.1284 L30.1212,2.8824 L32.1762,2.8824 L32.1172,3.1284 C31.4132,3.2284 31.3002,3.4544 31.1932,3.9484 L29.8342,9.9084 L29.5632,9.9084 L26.5542,4.4144 L26.5352,4.4144 L25.6232,8.4664 C25.4452,9.1914 25.5982,9.3874 26.2942,9.4704 L26.2392,9.7304 L24.0632,9.7304 L24.1282,9.4704 Z" id="Fill-23" fill="#FEFEFE"></path>
                    <path d="M36.1331,2.7297 C34.2801,2.7297 32.4281,4.1117 31.9301,6.3177 C31.4361,8.4477 32.5301,9.9197 34.4981,9.9197 C36.4511,9.9197 38.2201,8.4477 38.6961,6.3177 C39.2051,4.1117 37.9781,2.7297 36.1331,2.7297 M36.0621,3.0617 C37.4031,3.0617 37.3431,4.8457 37.0081,6.3177 C36.8031,7.2047 36.2081,9.5797 34.5741,9.5797 C32.9361,9.5797 33.4211,7.2047 33.6111,6.3177 C33.9671,4.8457 34.7161,3.0617 36.0621,3.0617" id="Fill-24" fill="#FEFEFE"></path>
                    <path d="M44.8743,9.7301 L41.2973,9.7301 L41.3443,9.4911 C42.4513,9.4941 42.5723,9.0921 42.7113,8.4661 L43.6063,4.5631 C43.6593,4.3251 43.7693,3.8741 43.3843,3.8741 C43.2483,3.8741 42.9023,3.9881 42.5463,4.1351 L42.6093,3.8651 L45.2733,2.7701 L45.4323,2.7701 L44.1103,8.5281 C43.9663,9.2041 43.9813,9.4911 44.9353,9.4911 L44.8743,9.7301 Z" id="Fill-25" fill="#FEFEFE"></path>
                </g>
            </g>
        </g>
    </g>
</svg>