<?xml version="1.0" encoding="UTF-8"?>
<svg width="56px" height="56px" viewBox="0 0 56 56" version="1.1" xmlns="http://www.w3.org/2000/svg" xmlns:xlink="http://www.w3.org/1999/xlink">
    <!-- Generator: Sketch 60 (88103) - https://sketch.com -->
    <title>Youtube</title>
    <desc>Created with Sketch.</desc>
    <g id="Page-1" stroke="none" stroke-width="1" fill="none" fill-rule="evenodd">
        <g id="iPhone-SE" transform="translate(-104.000000, -247.000000)">
            <g id="Youtube" transform="translate(104.000000, 247.000000)">
                <circle id="Oval" stroke="#FF0000" stroke-width="2" cx="28" cy="28" r="27"></circle>
                <path d="M42.3730682,21.2792177 C42.0280682,19.9883951 41.0114773,18.9719274 39.720625,18.6269516 C37.3813068,18 28,18 28,18 C28,18 18.6186932,18 16.2792046,18.6269516 C14.9883523,18.9719274 13.9717614,19.9883951 13.6267614,21.2792177 C13,23.6186855 13,28.5 13,28.5 C13,28.5 13,33.3811451 13.6267614,35.7207823 C13.9717614,37.0116049 14.9883523,38.0280726 16.2792046,38.3732177 C18.6186932,39 28,39 28,39 C28,39 37.3813068,39 39.720625,38.3732177 C41.0114773,38.0280726 42.0280682,37.0116049 42.3730682,35.7207823 C43,33.3811451 43,28.5 43,28.5 C43,28.5 43,23.6186855 42.3730682,21.2792177" id="Fill-1" fill="#FF0000" fill-rule="nonzero"></path>
                <polygon id="Fill-2" fill="#FFFFFF" fill-rule="nonzero" points="25 33 25 24 32 28.500172"></polygon>
            </g>
        </g>
    </g>
</svg>